<?xml version="1.0" encoding="UTF-8" standalone="no"?>
<svg
   xmlns:dc="http://purl.org/dc/elements/1.1/"
   xmlns:cc="http://creativecommons.org/ns#"
   xmlns:rdf="http://www.w3.org/1999/02/22-rdf-syntax-ns#"
   xmlns:svg="http://www.w3.org/2000/svg"
   xmlns="http://www.w3.org/2000/svg"
   xmlns:sodipodi="http://sodipodi.sourceforge.net/DTD/sodipodi-0.dtd"
   xmlns:inkscape="http://www.inkscape.org/namespaces/inkscape"
   version="1.1"
   x="0px"
   y="0px"
   viewBox="0 0 64.00444 46.91444"
   enable-background="new 0 0 65 65"
   xml:space="preserve"
   id="svg60"
   sodipodi:docname="api.svg"
   width="64.00444"
   height="46.91444"
   inkscape:version="0.92.2 (unknown)"><metadata
     id="metadata66"><rdf:RDF><cc:Work
         rdf:about=""><dc:format>image/svg+xml</dc:format><dc:type
           rdf:resource="http://purl.org/dc/dcmitype/StillImage" /><dc:title></dc:title></cc:Work></rdf:RDF></metadata><defs
     id="defs64" /><sodipodi:namedview
     pagecolor="#ffffff"
     bordercolor="#666666"
     borderopacity="1"
     objecttolerance="10"
     gridtolerance="10"
     guidetolerance="10"
     inkscape:pageopacity="0"
     inkscape:pageshadow="2"
     inkscape:window-width="1887"
     inkscape:window-height="1056"
     id="namedview62"
     showgrid="false"
     fit-margin-top="0"
     fit-margin-left="0"
     fit-margin-right="0"
     fit-margin-bottom="0"
     inkscape:zoom="2.9046154"
     inkscape:cx="32.00222"
     inkscape:cy="15.33222"
     inkscape:window-x="33"
     inkscape:window-y="24"
     inkscape:window-maximized="1"
     inkscape:current-layer="svg60" /><g
     id="g54"
     transform="translate(-0.49777979,-9.0427798)"><g
       id="g4"><path
         d="m 46.625,19.915 h -28.25 c -1.381,0 -2.5,1.119 -2.5,2.5 v 20 c 0,1.381 1.119,2.5 2.5,2.5 h 28.25 c 1.381,0 2.5,-1.119 2.5,-2.5 v -20 c 0,-1.381 -1.119,-2.5 -2.5,-2.5 z"
         id="path2"
         inkscape:connector-curvature="0" /></g><g
       id="g8"><path
         d="m 8.15,22.185 -2.87,-7.83 c 0.25,-0.19 0.47,-0.41 0.65,-0.69 0.92,-1.36 0.56,-3.2 -0.81,-4.12 -1.36,-0.91 -3.2,-0.55 -4.12,0.81 -0.91,1.37 -0.55,3.21 0.81,4.12 0.48,0.32 1.02,0.48 1.55,0.5 l 2.9,7.9 c 0.53,1.45 1.93,2.43 3.47,2.43 h 4.15 v -2.02 H 9.73 c -0.7,0 -1.34,-0.44 -1.58,-1.1 z"
         id="path6"
         inkscape:connector-curvature="0" /></g><g
       id="g12"><path
         d="m 3.85,31.385 -1.07,2.94 c -0.7,0.16 -1.34,0.58 -1.78,1.22 -0.91,1.36 -0.55,3.21 0.81,4.12 1.37,0.91 3.21,0.55 4.12,-0.81 0.92,-1.36 0.56,-3.21 -0.81,-4.12 -0.09,-0.06 -0.19,-0.11 -0.29,-0.16 l 0.92,-2.5 c 0.31,-0.85 1.13,-1.43 2.04,-1.43 h 6.09 v -2.01 H 7.79 c -1.75,0 -3.33,1.11 -3.94,2.75 z"
         id="path10"
         inkscape:connector-curvature="0" /></g><g
       id="g16"><path
         d="m 6.26,42.125 -2.9,7.91 c -0.91,0.03 -1.8,0.48 -2.36,1.3 -0.91,1.36 -0.55,3.21 0.81,4.12 1.37,0.91 3.21,0.55 4.12,-0.81 0.88,-1.3 0.57,-3.04 -0.65,-3.99 l 2.87,-7.83 c 0.24,-0.66 0.88,-1.11 1.58,-1.11 h 4.15 v -2.01 H 9.73 c -1.54,0 -2.94,0.97 -3.47,2.42 z"
         id="path14"
         inkscape:connector-curvature="0" /></g><g
       id="g20"><path
         d="m 24.56,50.525 c -0.2,-0.14 -0.42,-0.24 -0.64,-0.32 v -3.29 H 21.9 v 3.29 c -0.57,0.21 -1.09,0.59 -1.46,1.13 -0.91,1.36 -0.55,3.21 0.81,4.12 1.37,0.91 3.21,0.55 4.12,-0.81 0.92,-1.36 0.56,-3.21 -0.81,-4.12 z"
         id="path18"
         inkscape:connector-curvature="0" /></g><g
       id="g24"><path
         d="m 21.25,14.475 c 0.21,0.14 0.43,0.24 0.65,0.32 v 3.12 h 2.02 v -3.12 c 0.57,-0.2 1.09,-0.58 1.45,-1.13 0.92,-1.36 0.56,-3.2 -0.81,-4.12 -1.36,-0.91 -3.2,-0.55 -4.12,0.81 -0.91,1.37 -0.55,3.21 0.81,4.12 z"
         id="path22"
         inkscape:connector-curvature="0" /></g><g
       id="g28"><path
         d="m 34.3,50.525 c -0.2,-0.14 -0.42,-0.24 -0.64,-0.32 v -3.29 h -2.02 v 3.29 c -0.57,0.21 -1.09,0.59 -1.46,1.13 -0.91,1.36 -0.55,3.21 0.81,4.12 1.36,0.91 3.21,0.55 4.12,-0.81 0.92,-1.36 0.55,-3.21 -0.81,-4.12 z"
         id="path26"
         inkscape:connector-curvature="0" /></g><g
       id="g32"><path
         d="m 30.99,14.475 c 0.21,0.14 0.43,0.24 0.65,0.32 v 3.12 h 2.02 v -3.12 c 0.57,-0.2 1.09,-0.58 1.45,-1.13 0.92,-1.36 0.55,-3.2 -0.81,-4.12 -1.36,-0.91 -3.2,-0.55 -4.12,0.81 -0.91,1.37 -0.55,3.21 0.81,4.12 z"
         id="path30"
         inkscape:connector-curvature="0" /></g><g
       id="g36"><path
         d="m 44.04,50.525 c -0.2,-0.14 -0.42,-0.24 -0.65,-0.32 v -3.29 h -2.01 v 3.29 c -0.57,0.21 -1.09,0.59 -1.46,1.13 -0.91,1.36 -0.55,3.21 0.81,4.12 1.36,0.91 3.21,0.55 4.12,-0.81 0.92,-1.36 0.55,-3.21 -0.81,-4.12 z"
         id="path34"
         inkscape:connector-curvature="0" /></g><g
       id="g40"><path
         d="m 40.73,14.475 c 0.21,0.14 0.43,0.24 0.65,0.32 v 3.12 h 2.01 v -3.12 c 0.58,-0.2 1.1,-0.58 1.46,-1.13 0.92,-1.36 0.55,-3.2 -0.81,-4.12 -1.36,-0.91 -3.2,-0.55 -4.12,0.81 -0.91,1.37 -0.55,3.21 0.81,4.12 z"
         id="path38"
         inkscape:connector-curvature="0" /></g><g
       id="g44"><path
         d="m 63.19,50.525 c -0.48,-0.32 -1.02,-0.47 -1.55,-0.49 l -2.9,-7.91 c -0.53,-1.45 -1.93,-2.42 -3.47,-2.42 h -4.15 v 2.01 h 4.15 c 0.7,0 1.34,0.45 1.58,1.11 l 2.87,7.83 c -0.25,0.19 -0.47,0.41 -0.65,0.68 -0.92,1.36 -0.56,3.21 0.81,4.12 1.36,0.91 3.2,0.55 4.12,-0.81 0.91,-1.36 0.55,-3.21 -0.81,-4.12 z"
         id="path42"
         inkscape:connector-curvature="0" /></g><g
       id="g48"><path
         d="m 62.22,34.325 -1.07,-2.94 c -0.61,-1.65 -2.19,-2.75 -3.94,-2.75 h -6.09 v 2.01 h 6.09 c 0.91,0 1.73,0.58 2.04,1.43 l 0.92,2.5 c -0.1,0.05 -0.2,0.1 -0.29,0.16 -1.37,0.91 -1.73,2.76 -0.81,4.12 0.91,1.36 2.75,1.72 4.12,0.81 1.36,-0.91 1.72,-2.76 0.81,-4.12 -0.44,-0.64 -1.08,-1.06 -1.78,-1.22 z"
         id="path46"
         inkscape:connector-curvature="0" /></g><g
       id="g52"><path
         d="m 58.74,22.875 2.9,-7.9 c 0.91,-0.04 1.8,-0.49 2.36,-1.31 0.91,-1.36 0.55,-3.2 -0.81,-4.12 -1.37,-0.91 -3.21,-0.55 -4.12,0.81 -0.88,1.31 -0.57,3.05 0.65,3.99 l -2.87,7.84 c -0.24,0.66 -0.88,1.1 -1.58,1.1 h -4.15 v 2.02 h 4.15 c 1.54,0 2.94,-0.98 3.47,-2.43 z"
         id="path50"
         inkscape:connector-curvature="0" /></g></g></svg>