<svg xmlns="http://www.w3.org/2000/svg" xmlns:xlink="http://www.w3.org/1999/xlink" viewBox="0 0 24 30" version="1.1" x="0px" y="0px"><title>money_048-coins-business-cash-finance</title><desc>Created with Sketch.</desc><g stroke="none" stroke-width="1" fill="none" fill-rule="evenodd"><g transform="translate(-381.000000, -236.000000)" fill="#000000"><g transform="translate(381.000000, 237.000000)"><path d="M23,3 C23,1.22345479 20.0637085,0 16.5,0 C12.9362915,0 10,1.22345479 10,3 C10,4.77654521 12.9362915,6 16.5,6 C20.0637085,6 23,4.77654521 23,3 Z M11,3 C11,2.01512146 13.4362915,1 16.5,1 C19.5637085,1 22,2.01512146 22,3 C22,3.98487854 19.5637085,5 16.5,5 C13.4362915,5 11,3.98487854 11,3 Z"/><path d="M10,6 C10,7.77654521 12.9362915,9 16.5,9 C20.0637085,9 23,7.77654521 23,6 L23,3 L22,3 L22,6 C22,6.98487854 19.5637085,8 16.5,8 C13.4362915,8 11,6.98487854 11,6 L11,3 L10,3 L10,6 Z"/><path d="M10,8.03544443 L10,6 L11,6 L11,8.33681558 C10.6891467,8.18914529 10.3530726,8.08594751 10,8.03544443 Z M15.726665,11.9805081 C15.9804582,11.9934144 16.2385405,12 16.5,12 C20.0637085,12 23,10.7765452 23,9 L23,6 L22,6 L22,9 C22,9.98487854 19.5637085,11 16.5,11 C15.7614279,11 15.0593184,10.9410059 14.4190137,10.8376631 C14.91322,11.1477306 15.3546225,11.5341977 15.726665,11.9805081 Z"/><path d="M16.9769097,14.9926338 C20.3219386,14.8888092 23,13.6966292 23,12 L23,9 L22,9 L22,12 C22,12.9533662 19.7171182,13.935071 16.7920944,13.9969165 C16.8830684,14.3178456 16.9456365,14.6507144 16.9769097,14.9926338 Z M11,10.0224215 L11,10 L10,10 L10,10.2070325 C10.3222824,10.1158793 10.6565902,10.0533678 11,10.0224215 Z"/><path d="M16.4004533,17.9996813 C16.4335797,17.9998936 16.4667626,18 16.5,18 C20.0637085,18 23,16.7765452 23,15 L23,12 L22,12 L22,15 C22,15.9531756 19.7180312,16.9346784 16.7938492,16.9968793 C16.6951806,17.3465267 16.5628051,17.6820375 16.4004533,17.9996813 Z"/><path d="M13.4068006,20.6604797 C14.3290006,20.879959 15.3837203,21 16.5,21 C20.0637085,21 23,19.7765452 23,18 L23,15 L22,15 L22,18 C22,18.9848785 19.5637085,20 16.5,20 C15.9084426,20 15.3402765,19.9621543 14.8085231,19.893988 C14.3847847,20.2135527 13.9133514,20.4732424 13.4068006,20.6604797 Z"/><path d="M6.59987361,12.9996792 C6.5666386,12.9998929 6.53334677,13 6.5,13 C2.9362915,13 0,11.7765452 0,10 C0,8.22345479 2.9362915,7 6.5,7 C10.0637085,7 13,8.22345479 13,10 C13,10.0686281 12.9956182,10.1364308 12.9869878,10.2033696 C12.6685909,10.1141666 12.3385186,10.0529011 11.9995815,10.0223838 C11.9998602,10.0149211 12,10.0074597 12,10 C12,9.01512146 9.5637085,8 6.5,8 C3.4362915,8 1,9.01512146 1,10 C1,10.9848785 3.4362915,12 6.5,12 C6.76345846,12 7.02227727,11.9924933 7.27530615,11.9781447 C7.01413601,12.2910958 6.78708647,12.6335127 6.59987361,12.9996792 Z"/><path d="M6.021759,15.9925925 C2.67735092,15.8884929 0,14.6964042 0,13 L0,10 L1,10 L1,13 C1,13.9332003 3.18732657,14.893553 6.02316969,14.9917663 C6.00783617,15.1591214 6,15.3286456 6,15.5 C6,15.6660182 6.00735571,15.8303184 6.021759,15.9925925 Z M13,10.2070325 L13,10 L12,10 L12,10.0224215 C12.3434098,10.0533678 12.6777176,10.1158793 13,10.2070325 Z"/><path d="M7.24240033,18.9820489 C6.99857891,18.9939384 6.75084373,19 6.5,19 C2.9362915,19 0,17.7765452 0,16 L0,13 L1,13 L1,16 C1,16.9848785 3.4362915,18 6.5,18 C6.53325031,18 6.56642673,17.9998804 6.59952693,17.9996426 C6.77890194,18.3505995 6.99487033,18.6797455 7.24240033,18.9820489 Z"/><path d="M11.4298039,20.9995612 C10.2334484,21.6292434 8.46179064,22 6.5,22 C2.9362915,22 0,20.7765452 0,19 L0,16 L1,16 L1,19 C1,19.9848785 3.4362915,21 6.5,21 C7.62759241,21 8.67019524,20.8624922 9.53762594,20.6395938 C10.1264666,20.8645553 10.7638803,20.9912321 11.4298039,20.9995612 Z"/><path d="M11.5,22 C15.0898509,22 18,19.0898509 18,15.5 C18,11.9101491 15.0898509,9 11.5,9 C7.91014913,9 5,11.9101491 5,15.5 C5,19.0898509 7.91014913,22 11.5,22 Z M11.5,21 C14.5375661,21 17,18.5375661 17,15.5 C17,12.4624339 14.5375661,10 11.5,10 C8.46243388,10 6,12.4624339 6,15.5 C6,18.5375661 8.46243388,21 11.5,21 Z"/><path d="M12,11.8805957 L12,11 L11,11 L11,11.9278327 C10.0154638,12.1514623 9.35873092,12.9034147 9.35873092,13.8143657 C9.35873092,15.9671435 12.7515881,15.6397625 12.7515881,17.1576197 C12.7515881,17.8223022 12.1960325,18.1893657 11.5412706,18.1893657 C10.4996039,18.1893657 9.75555632,17.4353974 9.75555632,17.4353974 L9.20000076,18.1794451 C9.20000076,18.1794451 9.8400689,18.8880919 11,19.0632655 L11,20 L12,20 L12,19.0642104 C13.0995098,18.8835758 13.7436516,18.0785661 13.7436516,17.1278578 C13.7436516,14.8560324 10.3507944,15.2429371 10.3507944,13.7945244 C10.3507944,13.2389689 10.8765881,12.772699 11.6206357,12.772699 C12.5134928,12.772699 13.1583341,13.3778578 13.1583341,13.3778578 L13.6047627,12.5643657 C13.6047627,12.5643657 13.0530943,11.9967069 12,11.8805957 Z"/></g></g></g><text x="0" y="39" fill="#000000" font-size="5px" font-weight="bold" font-family="'Helvetica Neue', Helvetica, Arial-Unicode, Arial, Sans-serif">Created by Pham Thi Dieu Linh</text><text x="0" y="44" fill="#000000" font-size="5px" font-weight="bold" font-family="'Helvetica Neue', Helvetica, Arial-Unicode, Arial, Sans-serif">from the Noun Project</text></svg>