<?xml version="1.0" encoding="UTF-8" standalone="no"?>
<svg
   xmlns:dc="http://purl.org/dc/elements/1.1/"
   xmlns:cc="http://creativecommons.org/ns#"
   xmlns:rdf="http://www.w3.org/1999/02/22-rdf-syntax-ns#"
   xmlns:svg="http://www.w3.org/2000/svg"
   xmlns="http://www.w3.org/2000/svg"
   xmlns:sodipodi="http://sodipodi.sourceforge.net/DTD/sodipodi-0.dtd"
   xmlns:inkscape="http://www.inkscape.org/namespaces/inkscape"
   version="1.1"
   x="0px"
   y="0px"
   viewBox="0 0 98.025002 99.443802"
   enable-background="new 0 0 100 100"
   xml:space="preserve"
   id="svg8"
   sodipodi:docname="presentation.svg"
   width="98.025002"
   height="99.443802"
   inkscape:version="0.92.2 (unknown)"><metadata
     id="metadata14"><rdf:RDF><cc:Work
         rdf:about=""><dc:format>image/svg+xml</dc:format><dc:type
           rdf:resource="http://purl.org/dc/dcmitype/StillImage" /><dc:title></dc:title></cc:Work></rdf:RDF></metadata><defs
     id="defs12" /><sodipodi:namedview
     pagecolor="#ffffff"
     bordercolor="#666666"
     borderopacity="1"
     objecttolerance="10"
     gridtolerance="10"
     guidetolerance="10"
     inkscape:pageopacity="0"
     inkscape:pageshadow="2"
     inkscape:window-width="736"
     inkscape:window-height="480"
     id="namedview10"
     showgrid="false"
     fit-margin-top="0"
     fit-margin-left="0"
     fit-margin-right="0"
     fit-margin-bottom="0"
     inkscape:zoom="1.888"
     inkscape:cx="48.925"
     inkscape:cy="37.2"
     inkscape:window-x="43"
     inkscape:window-y="34"
     inkscape:window-maximized="0"
     inkscape:current-layer="svg8" /><path
     d="m 4.625,54.043802 c 1.1,-0.1 1.9,-0.9 2.2,-1.9 l 0.7,8.6 c 0.3,-0.5 0.7,-1 1.2,-1.5 0.6,-0.6 1.2,-1.2 1.9,-1.6 0.7,-0.5 1.4,-0.8 2.1,-1.1 0.7,-0.2 1.3,-0.4 2,-0.4 0.3,0 0.5,0 0.7,0 1.5,0 2.9,0.4 4.1,1.1 0.9,0.5 1.5,1 1.9,1.5 0.5,0.3 1.1,0.7 1.7,1.4 l 0.8,-8.4 2.3,-19.7 3.5,5 c 0.5,0.7 1.3,1.2 2.1,1.4 l 3.9,0.8 v 8.2 c 0,2.3 1.9,4.3 4.3,4.3 h 21.3 v 4.5 c 1.3,0.1 2.4,0.4 3.5,1.1 0.4,0.2 0.8,0.5 1.1,0.7 v -6.3 h 21.3 c 2.3,0 4.3,-1.9 4.3,-4.3 V 7.7438021 h 4.2 c 1.3,0 2.3,-1 2.3,-2.3 0,-1.3 -1,-2.3 -2.3,-2.3 h -64 c -1.3,0 -2.3,1 -2.3,2.3 0,1.3 1,2.3 2.3,2.3 h 4.2 V 28.543802 l 1,1.6 3.5,1 V 7.7438021 h 46.5 V 47.143802 h -46.6 v -7 l 6.2,1.2 c 1.2,0.2 2.5,-0.5 2.8,-1.7 0.4,-1.3 -0.4,-2.6 -1.7,-3 l -12.5,-3.6 -5.9,-9.3 v 0 c -0.1,-0.1 -0.1,-0.2 -0.2,-0.3 -0.3,-0.3 -0.7,-0.6 -1.1,-0.9 0,0 0,-0.1 -0.1,-0.1 -0.5,-0.4 -0.9,-0.7 -1.4,-1.1 0,0 -0.1,-0.1 -0.1,-0.1 v 0 c -3,-2.2 -5.8,-3.6 -6.4,-3.9 -0.1,0 -0.1,-0.1 -0.1,-0.2 0,-0.4 0,-1.3 0,-2.2 0.3,-0.7 0.5,-1.5 0.7,-2.2 0.3,0.2 0.8,0.1 1.4,-1.9 0.5,-1.5999999 0.2,-2.1999999 -0.2,-2.2999999 h -0.1 c 0.1,-0.2 0.1,-0.4 0.1,-0.4 1.5,-6.3 -2,-6 -2,-6 -0.4,-1.1 -2.2,-2.39999999 -3.8,-2.09999999 -1.6,0.3 -5.1,0 -5.1,0 0,0.7 0.6,1.19999999 0.6,1.19999999 -3.5,2.1 -2.1,7 -2.1,7 -0.5,0 -1.2,0.3 -0.6,2.2999999 0.4,1.5 0.8,1.9 1.1,2 0.1,0.9 0.4,1.8 0.9,2.7 v 1.9 c 0,0.1 -0.1,0.2 -0.1,0.2 -0.7,0.4 -4.5,2.2 -7.9,5.1 -0.5,0.4 -0.8,0.9 -0.9,1.5 v 0 c 0,0 0,0 0,0 l -1.6,10.8 c -0.3,1.6 -0.3,3.3 0,4.9 l 1.9,12.3 c 0.2,1.3 1.3,2.2 2.5,2.1 z m 10.7,-34.5 v 0 0 c 0.5,0 3.5,0.2 0.7,4 l 1.4,11.7 -2.1,2.4 -2.1,-2.4 1.4,-11.7 c -2.8,-3.8 0.2,-4 0.7,-4 z m 80.6,79.9 h -93.8 v -13 -3.7 c 0,-0.8 0.3,-1.5 1,-2 3.3,-2.7 6.9,-4.5 7.6,-4.9 0.1,0 0.1,-0.1 0.1,-0.2 v -1.9 c -0.5,-0.8 -0.8,-1.8 -0.9,-2.6 -0.3,0 -0.7,-0.4 -1.1,-1.9 -0.5,-1.9 0,-2.3 0.4,-2.3 0,0 0.1,0 0.1,0 -0.4,-1 -0.4,-2.1 -0.1,-3 0.3,-1.1 0.9,-2 1.6,-2.7 0.4,-0.5 0.9,-0.9 1.4,-1.2 0.4,-0.3 0.9,-0.5 1.4,-0.7 v 0 c 0.4,-0.1 0.8,-0.2 1.3,-0.2 0.2,0 0.4,0 0.5,0 1.1,0 2,0.3 2.6,0.7 1.1,0.6 1.6,1.4 1.6,1.4 0,0 2.8,0.2 1.6,6.1 0.4,0.1 0.6,0.7 0.2,2.2 -0.4,1.5 -0.8,1.9 -1.1,1.9 -0.1,0 -0.2,0 -0.2,-0.1 -0.1,0.7 -0.3,1.4 -0.6,2.1 v 2.2 c 0,0.1 0,0.2 0.1,0.2 0.7,0.3 3.7,1.9 6.8,4.3 3.1,-2.4 6.2,-3.9 6.8,-4.3 0.1,0 0.1,-0.1 0.1,-0.2 v -1.9 c -0.5,-0.8 -0.8,-1.8 -0.9,-2.6 -0.3,0 -0.7,-0.4 -1.1,-1.9 -0.5,-1.9 0,-2.3 0.4,-2.3 0,0 0.1,0 0.1,0 -0.4,-1 -0.4,-2.1 -0.1,-3 0.3,-1.1 0.9,-2 1.6,-2.7 0.4,-0.5 0.9,-0.9 1.4,-1.2 0.4,-0.3 0.9,-0.5 1.4,-0.7 v 0 c 0.4,-0.1 0.8,-0.2 1.3,-0.2 0.2,0 0.4,0 0.5,0 1.1,0 2,0.3 2.6,0.7 1.1,0.6 1.6,1.4 1.6,1.4 0,0 2.8,0.2 1.6,6.1 0.4,0.1 0.7,0.7 0.2,2.2 -0.4,1.5 -0.8,1.9 -1.1,1.9 -0.1,0 -0.2,0 -0.2,-0.1 -0.1,0.7 -0.3,1.4 -0.6,2.1 v 2.2 c 0,0.1 0,0.2 0.1,0.2 0.7,0.3 3.7,1.9 6.8,4.3 3.1,-2.4 6.2,-3.9 6.8,-4.3 0.1,0 0.1,-0.1 0.1,-0.2 v -1.9 c -0.5,-0.8 -0.8,-1.8 -0.9,-2.6 -0.3,0 -0.7,-0.4 -1.1,-1.9 -0.5,-1.9 0,-2.3 0.4,-2.3 0,0 0.1,0 0.1,0 -0.4,-1 -0.4,-2.1 -0.1,-3 0.3,-1.1 0.9,-2 1.6,-2.7 0.4,-0.5 0.9,-0.9 1.4,-1.2 0.4,-0.3 0.9,-0.5 1.4,-0.7 v 0 c 0.4,-0.1 0.8,-0.2 1.3,-0.2 0.2,0 0.4,0 0.5,0 1.1,0 2,0.3 2.6,0.7 1.1,0.6 1.6,1.4 1.6,1.4 0,0 2.8,0.2 1.6,6.1 0.4,0.1 0.6,0.7 0.2,2.2 -0.4,1.5 -0.8,1.9 -1.1,1.9 -0.1,0 -0.2,0 -0.2,-0.1 -0.1,0.7 -0.3,1.4 -0.6,2.1 v 2.2 c 0,0.1 0,0.2 0.1,0.2 0.7,0.3 3.7,1.9 6.8,4.3 3.1,-2.4 6.2,-3.9 6.8,-4.3 0.1,0 0.1,-0.1 0.1,-0.2 v -1.9 c -0.5,-0.8 -0.8,-1.8 -0.9,-2.6 -0.3,0 -0.7,-0.4 -1.1,-1.9 -0.5,-1.9 0,-2.3 0.4,-2.3 0,0 0.1,0 0.1,0 -0.4,-1 -0.4,-2.1 -0.1,-3 0.3,-1.1 0.9,-2 1.6,-2.7 0.4,-0.5 0.9,-0.9 1.4,-1.2 0.4,-0.3 0.9,-0.5 1.4,-0.7 v 0 c 0.4,-0.1 0.8,-0.2 1.3,-0.2 0.2,0 0.4,0 0.5,0 1.1,0 2,0.3 2.6,0.7 1.1,0.6 1.6,1.4 1.6,1.4 0,0 2.8,0.2 1.6,6.1 0.4,0.1 0.6,0.7 0.2,2.2 -0.4,1.5 -0.8,1.9 -1.1,1.9 -0.1,0 -0.2,0 -0.2,-0.1 -0.1,0.7 -0.3,1.4 -0.6,2.1 v 2.2 c 0,0.1 0,0.2 0.1,0.2 0.7,0.4 4.3,2.2 7.6,4.9 0.6,0.5 1,1.2 1,2 v 3.7 13 z m -35.5,-63 -4.7,-4.7 -4.5,-4.5 4.7,-4.7 4.5,4.5 10.8,-10.7 4.7,4.7 -10.8,10.8 z"
     id="path2"
     inkscape:connector-curvature="0" /></svg>