<?xml version="1.0" encoding="UTF-8" standalone="no"?>
<!-- Created with Inkscape (http://www.inkscape.org/) -->

<svg
   xmlns:dc="http://purl.org/dc/elements/1.1/"
   xmlns:cc="http://creativecommons.org/ns#"
   xmlns:rdf="http://www.w3.org/1999/02/22-rdf-syntax-ns#"
   xmlns:svg="http://www.w3.org/2000/svg"
   xmlns="http://www.w3.org/2000/svg"
   xmlns:sodipodi="http://sodipodi.sourceforge.net/DTD/sodipodi-0.dtd"
   xmlns:inkscape="http://www.inkscape.org/namespaces/inkscape"
   width="256"
   height="256"
   viewBox="0 0 256 256"
   id="svg2"
   version="1.1"
   inkscape:version="0.91 r13725"
   sodipodi:docname="sewa.svg">
  <defs
     id="defs4" />
  <sodipodi:namedview
     id="base"
     pagecolor="#ffffff"
     bordercolor="#666666"
     borderopacity="1.0"
     inkscape:pageopacity="0.0"
     inkscape:pageshadow="2"
     inkscape:zoom="2"
     inkscape:cx="117.48077"
     inkscape:cy="123.00696"
     inkscape:document-units="px"
     inkscape:current-layer="layer2"
     showgrid="false"
     units="px"
     inkscape:window-width="1887"
     inkscape:window-height="1056"
     inkscape:window-x="33"
     inkscape:window-y="24"
     inkscape:window-maximized="1" />
  <metadata
     id="metadata7">
    <rdf:RDF>
      <cc:Work
         rdf:about="">
        <dc:format>image/svg+xml</dc:format>
        <dc:type
           rdf:resource="http://purl.org/dc/dcmitype/StillImage" />
        <dc:title></dc:title>
      </cc:Work>
    </rdf:RDF>
  </metadata>
  <g
     inkscape:groupmode="layer"
     id="layer2"
     inkscape:label="Layer 2"
     style="display:inline">
    <rect
       style="color:#000000;clip-rule:nonzero;display:inline;overflow:visible;visibility:visible;opacity:1;isolation:auto;mix-blend-mode:normal;color-interpolation:sRGB;color-interpolation-filters:linearRGB;solid-color:#000000;solid-opacity:1;fill:#9bc33a;fill-opacity:1;fill-rule:evenodd;stroke:none;stroke-width:1px;stroke-linecap:butt;stroke-linejoin:miter;stroke-miterlimit:4;stroke-dasharray:none;stroke-dashoffset:0;stroke-opacity:1;color-rendering:auto;image-rendering:auto;shape-rendering:auto;text-rendering:auto;enable-background:accumulate"
       id="rect4536"
       width="256"
       height="256"
       x="0"
       y="0" />
    <rect
       style="color:#000000;clip-rule:nonzero;display:inline;overflow:visible;visibility:visible;opacity:1;isolation:auto;mix-blend-mode:normal;color-interpolation:sRGB;color-interpolation-filters:linearRGB;solid-color:#000000;solid-opacity:1;fill:#000000;fill-opacity:0.11282049;fill-rule:evenodd;stroke:none;stroke-width:1px;stroke-linecap:butt;stroke-linejoin:miter;stroke-miterlimit:4;stroke-dasharray:none;stroke-dashoffset:0;stroke-opacity:1;color-rendering:auto;image-rendering:auto;shape-rendering:auto;text-rendering:auto;enable-background:accumulate"
       id="rect4322-3-1"
       width="97"
       height="144"
       x="45.616924"
       y="66.233704"
       transform="matrix(0.9805265,-0.19638682,0.19638682,0.9805265,0,0)" />
    <g
       id="g4378"
       transform="matrix(0.9805265,-0.19638682,0.19638682,0.9805265,282.3253,-28.882402)">
      <rect
         y="37"
         x="-238.5"
         height="144"
         width="97"
         id="rect4322-3"
         style="color:#000000;clip-rule:nonzero;display:inline;overflow:visible;visibility:visible;opacity:1;isolation:auto;mix-blend-mode:normal;color-interpolation:sRGB;color-interpolation-filters:linearRGB;solid-color:#000000;solid-opacity:1;fill:#dbf1c1;fill-opacity:1;fill-rule:evenodd;stroke:none;stroke-width:1px;stroke-linecap:butt;stroke-linejoin:miter;stroke-miterlimit:4;stroke-dasharray:none;stroke-dashoffset:0;stroke-opacity:1;color-rendering:auto;image-rendering:auto;shape-rendering:auto;text-rendering:auto;enable-background:accumulate" />
      <rect
         y="37.5"
         x="-240.5"
         height="144"
         width="97"
         id="rect4322"
         style="color:#000000;clip-rule:nonzero;display:inline;overflow:visible;visibility:visible;opacity:1;isolation:auto;mix-blend-mode:normal;color-interpolation:sRGB;color-interpolation-filters:linearRGB;solid-color:#000000;solid-opacity:1;fill:#e6ffc8;fill-opacity:1;fill-rule:evenodd;stroke:none;stroke-width:1px;stroke-linecap:butt;stroke-linejoin:miter;stroke-miterlimit:4;stroke-dasharray:none;stroke-dashoffset:0;stroke-opacity:1;color-rendering:auto;image-rendering:auto;shape-rendering:auto;text-rendering:auto;enable-background:accumulate" />
      <g
         transform="translate(1.5,1)"
         id="text4328"
         style="font-style:normal;font-variant:normal;font-weight:normal;font-stretch:normal;font-size:10px;line-height:125%;font-family:Baloo;-inkscape-font-specification:Baloo;letter-spacing:0px;word-spacing:0px;fill:#7e7e7e;fill-opacity:1;stroke:none;stroke-width:1px;stroke-linecap:butt;stroke-linejoin:miter;stroke-opacity:1">
        <path
           inkscape:connector-curvature="0"
           id="path4335"
           style="font-style:normal;font-variant:normal;font-weight:normal;font-stretch:normal;font-family:Baloo;-inkscape-font-specification:Baloo;text-align:center;text-anchor:middle;fill:#7e7e7e;fill-opacity:1"
           d="m -218.99211,62.75 q 0.42,0 0.64,-0.19 0.23,-0.2 0.23,-0.6 0,-0.38 -0.24,-0.58 -0.23,-0.21 -0.68,-0.21 -0.16,0 -0.27,0.01 -0.1,0 -0.21,0.02 l 0,1.55 0.53,0 z m -0.52,3.21 q -0.11,0.03 -0.35,0.06 -0.23,0.03 -0.46,0.03 -0.23,0 -0.41,-0.04 -0.17,-0.03 -0.29,-0.12 -0.12,-0.09 -0.18,-0.25 -0.06,-0.16 -0.06,-0.42 l 0,-4.71 q 0,-0.21 0.11,-0.32 0.12,-0.12 0.32,-0.19 0.34,-0.12 0.77,-0.17 0.44,-0.06 0.88,-0.06 1.38,0 2.11,0.59 0.73,0.59 0.73,1.6 0,0.49 -0.16,0.89 -0.15,0.39 -0.46,0.68 -0.3,0.28 -0.77,0.44 -0.46,0.15 -1.07,0.15 l -0.71,0 0,1.84 z" />
        <path
           inkscape:connector-curvature="0"
           id="path4337"
           style="font-style:normal;font-variant:normal;font-weight:normal;font-stretch:normal;font-family:Baloo;-inkscape-font-specification:Baloo;text-align:center;text-anchor:middle;fill:#7e7e7e;fill-opacity:1"
           d="m -215.46133,60.87 q 0,-0.43 0.25,-0.68 0.25,-0.25 0.68,-0.25 l 3.3,0 q 0.07,0.11 0.12,0.29 0.06,0.18 0.06,0.38 0,0.38 -0.17,0.54 -0.16,0.16 -0.43,0.16 l -2.11,0 0,0.93 2.25,0 q 0.07,0.11 0.12,0.29 0.06,0.17 0.06,0.37 0,0.38 -0.16,0.54 -0.16,0.16 -0.43,0.16 l -1.84,0 0,1.05 2.57,0 q 0.07,0.11 0.12,0.29 0.06,0.18 0.06,0.38 0,0.38 -0.17,0.55 -0.16,0.16 -0.43,0.16 l -2.92,0 q -0.43,0 -0.68,-0.25 -0.25,-0.25 -0.25,-0.68 l 0,-4.23 z" />
        <path
           inkscape:connector-curvature="0"
           id="path4339"
           style="font-style:normal;font-variant:normal;font-weight:normal;font-stretch:normal;font-family:Baloo;-inkscape-font-specification:Baloo;text-align:center;text-anchor:middle;fill:#7e7e7e;fill-opacity:1"
           d="m -208.23305,64.04 0,1.92 q -0.11,0.03 -0.35,0.06 -0.23,0.03 -0.46,0.03 -0.23,0 -0.41,-0.04 -0.17,-0.03 -0.29,-0.12 -0.11,-0.09 -0.17,-0.25 -0.06,-0.16 -0.06,-0.42 l 0,-4.71 q 0,-0.21 0.11,-0.32 0.12,-0.12 0.32,-0.19 0.34,-0.12 0.79,-0.17 0.45,-0.06 0.96,-0.06 1.38,0 2.08,0.58 0.7,0.58 0.7,1.57 0,0.62 -0.32,1.06 -0.32,0.44 -0.76,0.68 0.36,0.49 0.71,0.92 0.35,0.43 0.55,0.78 -0.1,0.35 -0.37,0.54 -0.26,0.18 -0.59,0.18 -0.22,0 -0.38,-0.05 -0.16,-0.05 -0.28,-0.14 -0.12,-0.09 -0.22,-0.22 -0.1,-0.13 -0.19,-0.28 l -0.84,-1.35 -0.53,0 z m 0.63,-1.33 q 0.38,0 0.6,-0.19 0.22,-0.2 0.22,-0.58 0,-0.38 -0.25,-0.57 -0.24,-0.2 -0.77,-0.2 -0.15,0 -0.24,0.01 -0.09,0.01 -0.2,0.03 l 0,1.5 0.64,0 z" />
        <path
           inkscape:connector-curvature="0"
           id="path4341"
           style="font-style:normal;font-variant:normal;font-weight:normal;font-stretch:normal;font-family:Baloo;-inkscape-font-specification:Baloo;text-align:center;text-anchor:middle;fill:#7e7e7e;fill-opacity:1"
           d="m -202.7793,59.94 q 0.11,-0.02 0.35,-0.05 0.24,-0.04 0.46,-0.04 0.23,0 0.4,0.04 0.18,0.03 0.3,0.12 0.12,0.09 0.18,0.25 0.06,0.16 0.06,0.42 l 0,3.7 q 0,0.89 -0.51,1.34 -0.51,0.44 -1.5,0.44 -0.52,0 -0.84,-0.16 -0.23,-0.11 -0.34,-0.3 -0.1,-0.19 -0.1,-0.43 0,-0.2 0.05,-0.35 0.06,-0.15 0.14,-0.24 0.19,0.04 0.32,0.06 0.14,0.01 0.3,0.01 0.39,0 0.56,-0.19 0.17,-0.2 0.17,-0.58 l 0,-4.04 z" />
        <path
           inkscape:connector-curvature="0"
           id="path4343"
           style="font-style:normal;font-variant:normal;font-weight:normal;font-stretch:normal;font-family:Baloo;-inkscape-font-specification:Baloo;text-align:center;text-anchor:middle;fill:#7e7e7e;fill-opacity:1"
           d="m -198.4682,60.12 q 0.17,-0.1 0.51,-0.19 0.35,-0.09 0.7,-0.09 0.5,0 0.88,0.15 0.39,0.14 0.5,0.45 0.18,0.52 0.39,1.21 0.21,0.69 0.42,1.43 0.21,0.73 0.41,1.45 0.2,0.71 0.35,1.26 -0.12,0.14 -0.36,0.22 -0.24,0.09 -0.57,0.09 -0.24,0 -0.41,-0.04 -0.16,-0.04 -0.27,-0.12 -0.1,-0.08 -0.17,-0.21 -0.06,-0.13 -0.11,-0.3 l -0.18,-0.69 -1.81,0 q -0.08,0.3 -0.16,0.62 -0.08,0.32 -0.16,0.62 -0.14,0.05 -0.3,0.08 -0.15,0.04 -0.37,0.04 -0.51,0 -0.76,-0.17 -0.24,-0.18 -0.24,-0.49 0,-0.14 0.04,-0.28 0.04,-0.14 0.09,-0.33 0.07,-0.27 0.19,-0.67 0.13,-0.4 0.28,-0.86 0.15,-0.47 0.32,-0.96 0.17,-0.49 0.32,-0.92 0.15,-0.44 0.27,-0.78 0.13,-0.34 0.2,-0.52 z m 1.2,1.29 q -0.14,0.42 -0.32,0.94 -0.17,0.51 -0.31,1.04 l 1.24,0 q -0.14,-0.54 -0.29,-1.05 -0.14,-0.52 -0.26,-0.93 l -0.06,0 z" />
        <path
           inkscape:connector-curvature="0"
           id="path4345"
           style="font-style:normal;font-variant:normal;font-weight:normal;font-stretch:normal;font-family:Baloo;-inkscape-font-specification:Baloo;text-align:center;text-anchor:middle;fill:#7e7e7e;fill-opacity:1"
           d="m -187.99867,65.79 q -0.14,0.14 -0.41,0.21 -0.26,0.08 -0.63,0.08 -0.37,0 -0.7,-0.11 -0.33,-0.11 -0.54,-0.53 l -0.99,-2.02 q -0.15,-0.31 -0.27,-0.58 -0.12,-0.28 -0.26,-0.64 l -0.06,0.01 q 0.04,0.54 0.04,1.1 0.01,0.56 0.01,1.1 l 0,1.55 q -0.11,0.03 -0.34,0.06 -0.22,0.03 -0.44,0.03 -0.22,0 -0.39,-0.03 -0.17,-0.03 -0.28,-0.12 -0.11,-0.09 -0.17,-0.24 -0.06,-0.16 -0.06,-0.41 l 0,-5 q 0.14,-0.2 0.43,-0.3 0.29,-0.1 0.62,-0.1 0.37,0 0.7,0.12 0.34,0.11 0.54,0.52 l 1,2.02 q 0.15,0.31 0.27,0.59 0.12,0.27 0.26,0.63 l 0.05,-0.01 q -0.04,-0.54 -0.05,-1.08 -0.01,-0.54 -0.01,-1.08 l 0,-1.62 q 0.11,-0.03 0.33,-0.06 0.23,-0.03 0.45,-0.03 0.44,0 0.67,0.16 0.23,0.15 0.23,0.64 l 0,5.14 z" />
        <path
           inkscape:connector-curvature="0"
           id="path4347"
           style="font-style:normal;font-variant:normal;font-weight:normal;font-stretch:normal;font-family:Baloo;-inkscape-font-specification:Baloo;text-align:center;text-anchor:middle;fill:#7e7e7e;fill-opacity:1"
           d="m -185.5918,59.94 q 0.11,-0.02 0.35,-0.05 0.24,-0.04 0.46,-0.04 0.23,0 0.4,0.04 0.18,0.03 0.3,0.12 0.12,0.09 0.18,0.25 0.06,0.16 0.06,0.42 l 0,3.7 q 0,0.89 -0.51,1.34 -0.51,0.44 -1.5,0.44 -0.52,0 -0.84,-0.16 -0.23,-0.11 -0.34,-0.3 -0.1,-0.19 -0.1,-0.43 0,-0.2 0.05,-0.35 0.06,-0.15 0.14,-0.24 0.19,0.04 0.32,0.06 0.14,0.01 0.3,0.01 0.39,0 0.56,-0.19 0.17,-0.2 0.17,-0.58 l 0,-4.04 z" />
        <path
           inkscape:connector-curvature="0"
           id="path4349"
           style="font-style:normal;font-variant:normal;font-weight:normal;font-stretch:normal;font-family:Baloo;-inkscape-font-specification:Baloo;text-align:center;text-anchor:middle;fill:#7e7e7e;fill-opacity:1"
           d="m -180.8207,65.96 q -0.11,0.03 -0.35,0.06 -0.23,0.03 -0.46,0.03 -0.23,0 -0.41,-0.04 -0.17,-0.03 -0.29,-0.12 -0.12,-0.09 -0.18,-0.25 -0.06,-0.16 -0.06,-0.42 l 0,-5.28 q 0.11,-0.02 0.35,-0.05 0.24,-0.04 0.46,-0.04 0.23,0 0.4,0.04 0.18,0.03 0.3,0.12 0.12,0.09 0.18,0.25 0.06,0.16 0.06,0.42 l 0,5.28 z" />
        <path
           inkscape:connector-curvature="0"
           id="path4351"
           style="font-style:normal;font-variant:normal;font-weight:normal;font-stretch:normal;font-family:Baloo;-inkscape-font-specification:Baloo;text-align:center;text-anchor:middle;fill:#7e7e7e;fill-opacity:1"
           d="m -178.23383,60.12 q 0.17,-0.1 0.51,-0.19 0.35,-0.09 0.7,-0.09 0.5,0 0.88,0.15 0.39,0.14 0.5,0.45 0.18,0.52 0.39,1.21 0.21,0.69 0.42,1.43 0.21,0.73 0.41,1.45 0.2,0.71 0.35,1.26 -0.12,0.14 -0.36,0.22 -0.24,0.09 -0.57,0.09 -0.24,0 -0.41,-0.04 -0.16,-0.04 -0.27,-0.12 -0.1,-0.08 -0.17,-0.21 -0.06,-0.13 -0.11,-0.3 l -0.18,-0.69 -1.81,0 q -0.08,0.3 -0.16,0.62 -0.08,0.32 -0.16,0.62 -0.14,0.05 -0.3,0.08 -0.15,0.04 -0.37,0.04 -0.51,0 -0.76,-0.17 -0.24,-0.18 -0.24,-0.49 0,-0.14 0.04,-0.28 0.04,-0.14 0.09,-0.33 0.07,-0.27 0.19,-0.67 0.13,-0.4 0.28,-0.86 0.15,-0.47 0.32,-0.96 0.17,-0.49 0.32,-0.92 0.15,-0.44 0.27,-0.78 0.13,-0.34 0.2,-0.52 z m 1.2,1.29 q -0.14,0.42 -0.32,0.94 -0.17,0.51 -0.31,1.04 l 1.24,0 q -0.14,-0.54 -0.29,-1.05 -0.14,-0.52 -0.26,-0.93 l -0.06,0 z" />
        <path
           inkscape:connector-curvature="0"
           id="path4353"
           style="font-style:normal;font-variant:normal;font-weight:normal;font-stretch:normal;font-family:Baloo;-inkscape-font-specification:Baloo;text-align:center;text-anchor:middle;fill:#7e7e7e;fill-opacity:1"
           d="m -167.7643,65.79 q -0.14,0.14 -0.41,0.21 -0.26,0.08 -0.63,0.08 -0.37,0 -0.7,-0.11 -0.33,-0.11 -0.54,-0.53 l -0.99,-2.02 q -0.15,-0.31 -0.27,-0.58 -0.12,-0.28 -0.26,-0.64 l -0.06,0.01 q 0.04,0.54 0.04,1.1 0.01,0.56 0.01,1.1 l 0,1.55 q -0.11,0.03 -0.34,0.06 -0.22,0.03 -0.44,0.03 -0.22,0 -0.39,-0.03 -0.17,-0.03 -0.28,-0.12 -0.11,-0.09 -0.17,-0.24 -0.06,-0.16 -0.06,-0.41 l 0,-5 q 0.14,-0.2 0.43,-0.3 0.29,-0.1 0.62,-0.1 0.37,0 0.7,0.12 0.34,0.11 0.54,0.52 l 1,2.02 q 0.15,0.31 0.27,0.59 0.12,0.27 0.26,0.63 l 0.05,-0.01 q -0.04,-0.54 -0.05,-1.08 -0.01,-0.54 -0.01,-1.08 l 0,-1.62 q 0.11,-0.03 0.33,-0.06 0.23,-0.03 0.45,-0.03 0.44,0 0.67,0.16 0.23,0.15 0.23,0.64 l 0,5.14 z" />
        <path
           inkscape:connector-curvature="0"
           id="path4355"
           style="font-style:normal;font-variant:normal;font-weight:normal;font-stretch:normal;font-family:Baloo;-inkscape-font-specification:Baloo;text-align:center;text-anchor:middle;fill:#7e7e7e;fill-opacity:1"
           d="m -205.01086,76.09 q -0.44,-0.15 -0.8,-0.3 -0.36,-0.16 -0.62,-0.38 -0.26,-0.22 -0.41,-0.52 -0.14,-0.31 -0.14,-0.75 0,-0.85 0.65,-1.36 0.66,-0.51 1.84,-0.51 0.43,0 0.8,0.06 0.37,0.06 0.63,0.19 0.27,0.12 0.42,0.32 0.15,0.19 0.15,0.45 0,0.26 -0.12,0.45 -0.12,0.18 -0.29,0.31 -0.22,-0.14 -0.59,-0.24 -0.37,-0.11 -0.81,-0.11 -0.45,0 -0.66,0.13 -0.21,0.12 -0.21,0.31 0,0.15 0.13,0.25 0.13,0.09 0.39,0.17 l 0.53,0.17 q 0.94,0.3 1.44,0.77 0.51,0.46 0.51,1.26 0,0.85 -0.67,1.38 -0.67,0.52 -1.97,0.52 -0.46,0 -0.86,-0.08 -0.39,-0.07 -0.69,-0.21 -0.29,-0.15 -0.46,-0.36 -0.16,-0.22 -0.16,-0.5 0,-0.29 0.17,-0.49 0.17,-0.21 0.37,-0.32 0.28,0.22 0.68,0.38 0.41,0.16 0.89,0.16 0.49,0 0.69,-0.15 0.2,-0.15 0.2,-0.35 0,-0.2 -0.16,-0.3 -0.16,-0.11 -0.45,-0.21 l -0.42,-0.14 z" />
        <path
           inkscape:connector-curvature="0"
           id="path4357"
           style="font-style:normal;font-variant:normal;font-weight:normal;font-stretch:normal;font-family:Baloo;-inkscape-font-specification:Baloo;text-align:center;text-anchor:middle;fill:#7e7e7e;fill-opacity:1"
           d="m -201.22305,73.37 q 0,-0.43 0.25,-0.68 0.25,-0.25 0.68,-0.25 l 3.3,0 q 0.07,0.11 0.12,0.29 0.06,0.18 0.06,0.38 0,0.38 -0.17,0.54 -0.16,0.16 -0.43,0.16 l -2.11,0 0,0.93 2.25,0 q 0.07,0.11 0.12,0.29 0.06,0.17 0.06,0.37 0,0.38 -0.16,0.54 -0.16,0.16 -0.43,0.16 l -1.84,0 0,1.05 2.57,0 q 0.07,0.11 0.12,0.29 0.06,0.18 0.06,0.38 0,0.38 -0.17,0.55 -0.16,0.16 -0.43,0.16 l -2.92,0 q -0.43,0 -0.68,-0.25 -0.25,-0.25 -0.25,-0.68 l 0,-4.23 z" />
        <path
           inkscape:connector-curvature="0"
           id="path4359"
           style="font-style:normal;font-variant:normal;font-weight:normal;font-stretch:normal;font-family:Baloo;-inkscape-font-specification:Baloo;text-align:center;text-anchor:middle;fill:#7e7e7e;fill-opacity:1"
           d="m -192.93477,73.92 q 0.11,-0.05 0.34,-0.11 0.24,-0.07 0.48,-0.07 0.42,0 0.7,0.13 0.28,0.12 0.34,0.36 0.11,0.41 0.2,0.77 0.1,0.35 0.19,0.68 0.09,0.32 0.17,0.64 0.09,0.32 0.17,0.67 l 0.05,0 q 0.09,-0.61 0.16,-1.16 0.07,-0.56 0.13,-1.09 0.06,-0.54 0.12,-1.06 0.06,-0.53 0.12,-1.07 0.37,-0.21 0.79,-0.21 0.37,0 0.64,0.16 0.27,0.16 0.27,0.54 0,0.22 -0.05,0.63 -0.04,0.4 -0.12,0.9 -0.07,0.5 -0.17,1.05 -0.1,0.55 -0.21,1.05 -0.11,0.5 -0.23,0.91 -0.11,0.4 -0.21,0.62 -0.15,0.14 -0.49,0.23 -0.34,0.09 -0.7,0.09 -0.47,0 -0.8,-0.12 -0.32,-0.13 -0.39,-0.36 -0.13,-0.4 -0.28,-0.95 -0.15,-0.55 -0.32,-1.21 -0.14,0.65 -0.29,1.27 -0.15,0.62 -0.27,1.05 -0.15,0.14 -0.45,0.23 -0.3,0.09 -0.66,0.09 -0.45,0 -0.82,-0.12 -0.36,-0.13 -0.47,-0.36 -0.09,-0.18 -0.2,-0.53 -0.1,-0.36 -0.21,-0.81 -0.11,-0.46 -0.23,-0.99 -0.11,-0.53 -0.21,-1.06 -0.09,-0.53 -0.17,-1.03 -0.08,-0.51 -0.12,-0.93 0.14,-0.13 0.39,-0.24 0.25,-0.11 0.54,-0.11 0.38,0 0.62,0.17 0.25,0.16 0.31,0.55 0.16,1.02 0.26,1.7 0.11,0.68 0.17,1.12 0.07,0.43 0.1,0.67 0.03,0.24 0.06,0.38 l 0.05,0 q 0.09,-0.4 0.17,-0.74 0.08,-0.34 0.16,-0.68 0.09,-0.35 0.18,-0.74 0.09,-0.4 0.19,-0.91 z" />
        <path
           inkscape:connector-curvature="0"
           id="path4361"
           style="font-style:normal;font-variant:normal;font-weight:normal;font-stretch:normal;font-family:Baloo;-inkscape-font-specification:Baloo;text-align:center;text-anchor:middle;fill:#7e7e7e;fill-opacity:1"
           d="m -185.9682,72.62 q 0.17,-0.1 0.51,-0.19 0.35,-0.09 0.7,-0.09 0.5,0 0.88,0.15 0.39,0.14 0.5,0.45 0.18,0.52 0.39,1.21 0.21,0.69 0.42,1.43 0.21,0.73 0.41,1.45 0.2,0.71 0.35,1.26 -0.12,0.14 -0.36,0.22 -0.24,0.09 -0.57,0.09 -0.24,0 -0.41,-0.04 -0.16,-0.04 -0.27,-0.12 -0.1,-0.08 -0.17,-0.21 -0.06,-0.13 -0.11,-0.3 l -0.18,-0.69 -1.81,0 q -0.08,0.3 -0.16,0.62 -0.08,0.32 -0.16,0.62 -0.14,0.05 -0.3,0.08 -0.15,0.04 -0.37,0.04 -0.51,0 -0.76,-0.17 -0.24,-0.18 -0.24,-0.49 0,-0.14 0.04,-0.28 0.04,-0.14 0.09,-0.33 0.07,-0.27 0.19,-0.67 0.13,-0.4 0.28,-0.86 0.15,-0.47 0.32,-0.96 0.17,-0.49 0.32,-0.92 0.15,-0.44 0.27,-0.78 0.13,-0.34 0.2,-0.52 z m 1.2,1.29 q -0.14,0.42 -0.32,0.94 -0.17,0.51 -0.31,1.04 l 1.24,0 q -0.14,-0.54 -0.29,-1.05 -0.14,-0.52 -0.26,-0.93 l -0.06,0 z" />
      </g>
    </g>
    <path
       style="fill:#000000;fill-opacity:0.11764706;fill-rule:evenodd;stroke:none;stroke-width:1px;stroke-linecap:butt;stroke-linejoin:miter;stroke-opacity:1"
       d="M 257.5 110.08008 L 178.49414 130.1875 L 178.8457 134.05664 L 166.19531 137.26758 L 166.60938 140.98438 C 160.27287 142.77563 153.22331 144.55895 152.02148 144.88672 C 149.85492 145.4776 148.67273 146.65912 146.70312 147.25 C 144.73353 147.84088 134.88439 148.03834 132.12695 148.82617 C 131.4221 149.02756 130.23263 149.03167 128.78906 148.96094 C 128.74656 148.50493 128.69676 148.106 128.6582 147.83594 C 128.51893 146.86104 130.8863 140.66397 126.2207 138.64453 C 121.5551 136.62509 119.60545 141.36051 117.79492 142.68359 C 116.42601 143.68396 115.17984 147.06057 114.38086 149.31641 C 112.7229 150.06266 111.62808 151.99939 111.07031 154.26367 C 110.66371 154.56346 110.21723 154.85787 109.7168 155.14844 C 107.55809 156.40189 106.453 159.54342 103.58984 161.20703 C 96.534442 165.30654 93.073746 168.03074 90.009766 170.18945 C 86.945796 172.34816 81.792969 181.26172 81.792969 181.26172 L 78.556641 183.95312 L 75.599609 179.25586 L -0.5 228.67969 L -0.5 256.5 L 36.15625 256.5 L 79.638672 224.55664 L 97.365234 213.82227 L 92.533203 206.14844 C 100.6726 205.54833 120.71875 192.4043 120.71875 192.4043 C 120.71875 192.4043 127.61345 189.7566 129.8418 188.22461 C 132.07014 186.69262 131.37351 185.16196 132.62695 184.74414 C 133.88039 184.32633 139.86923 179.45154 140.07812 178.68555 C 140.28705 177.91955 143.42187 177.1543 143.42188 177.1543 L 143.39453 176.96094 C 145.45748 176.2916 151.83943 172.09028 152.97656 170.95312 C 154.15832 169.77138 154.1582 168.78784 154.1582 168 C 154.1582 167.21216 160.06556 165.43896 162.03516 163.86328 C 162.18579 163.74277 162.28274 163.64878 162.35547 163.56445 C 163.53341 163.20398 166.11863 163.2763 169.0957 163.25781 L 169.69922 168.67188 C 169.69922 168.67188 175.93804 166.83076 181.68945 165.39648 L 181.99805 168.79688 C 181.99805 168.79688 225.51693 159.21936 257.5 152.55078 L 257.5 110.08008 z "
       id="path4148-2" />
    <path
       style="fill:#f8d9c4;fill-opacity:1;fill-rule:evenodd;stroke:none;stroke-width:1px;stroke-linecap:butt;stroke-linejoin:miter;stroke-opacity:1"
       d="m 108.24455,103.60084 c 4.76565,-1.78712 14.77198,0.39392 17.52942,-0.39392 2.75743,-0.78784 12.60542,-0.9848 14.57502,-1.57568 1.96959,-0.59088 3.15135,-1.772635 5.31791,-2.36352 2.16656,-0.590879 23.43821,-5.908789 25.01389,-7.484467 1.57568,-1.575678 10.1405,15.197157 6.30271,21.665567 -3.739,6.3019 -19.49902,3.15136 -21.46861,4.72704 -1.9696,1.57568 -7.87839,3.34831 -7.87839,4.13615 0,0.78784 0,1.77264 -1.18176,2.9544 -1.18176,1.18175 -8.07535,5.71183 -9.84799,6.10575 -1.77264,0.39392 -8.86319,1.77264 -10.04494,1.57568 -1.18176,-0.19696 -6.60082,2.36169 -8.23647,3.55722 -1.34737,0.98482 -3.77808,3.92725 -5.35375,5.10901 -1.57568,1.18175 -10.83279,7.68143 -13.393266,3.93919 -2.560474,-3.74223 4.923996,-11.2267 7.287506,-12.80238 2.36352,-1.57568 12.40846,-9.84799 13.19631,-12.40846 0.78783,-2.56048 -10.24191,0.59088 -13.59023,-1.57568 -3.34831,-2.16656 -2.9544,-13.39327 1.77264,-15.1659 z"
       id="path4148"
       inkscape:connector-curvature="0"
       sodipodi:nodetypes="ssssssssssssssssss" />
    <path
       style="fill:#c8a68d;fill-opacity:1;fill-rule:evenodd;stroke:none;stroke-width:1px;stroke-linecap:butt;stroke-linejoin:miter;stroke-opacity:1"
       d="m 112.67615,116.10778 0.78783,9.65103 7.8784,0.4924 c 0,0 3.61195,-5.92756 1.77263,-8.56775 -1.83932,-2.64019 -10.43886,-1.57568 -10.43886,-1.57568 z"
       id="path4201"
       inkscape:connector-curvature="0"
       sodipodi:nodetypes="ccczc" />
    <path
       style="color:#000000;clip-rule:nonzero;display:inline;overflow:visible;visibility:visible;opacity:1;isolation:auto;mix-blend-mode:normal;color-interpolation:sRGB;color-interpolation-filters:linearRGB;solid-color:#000000;solid-opacity:1;fill:#e1ba9e;fill-opacity:1;fill-rule:evenodd;stroke:none;stroke-width:1px;stroke-linecap:butt;stroke-linejoin:miter;stroke-miterlimit:4;stroke-dasharray:none;stroke-dashoffset:0;stroke-opacity:1;color-rendering:auto;image-rendering:auto;shape-rendering:auto;text-rendering:auto;enable-background:accumulate"
       d="m 97.235364,115.58797 c 2.863156,-1.66362 3.969236,-4.80487 6.127946,-6.05831 2.15871,-1.25345 3.41216,-2.57653 4.03888,-4.10852 0.62672,-1.53198 2.22834,-7.033209 4.03887,-8.356289 1.81053,-1.32308 3.76034,-6.058313 8.42593,-4.038876 4.6656,2.019438 2.29798,8.217025 2.43726,9.191925 0.13927,0.9749 0.48745,3.41215 -0.27855,5.50123 -0.76599,2.08907 -6.6154,10.02755 -6.75467,13.37007 -0.13927,3.34251 8.5652,12.25589 8.5652,12.25589 l 12.95226,-3.76033 0.27854,1.9498 c 0,0 -3.13361,0.766 -3.34252,1.53199 -0.2089,0.76599 -6.19758,5.6405 -7.45102,6.05831 -1.25345,0.41782 -0.55709,1.94981 -2.78544,3.48179 -2.22834,1.53199 -9.12228,4.17815 -9.12228,4.17815 0,0 -25.904511,16.99113 -30.779016,13.2308 l -4.874505,-3.76033 -8.634837,-16.1555 5.361955,-4.45669 c 0,0 5.153048,-8.91339 8.217023,-11.0721 3.063974,-2.1587 6.523564,-4.88351 13.578974,-8.98301 z"
       id="path4150"
       inkscape:connector-curvature="0"
       sodipodi:nodetypes="sssssssscccssscscccss" />
    <path
       style="fill:#f9f9f9;fill-opacity:1;fill-rule:evenodd;stroke:none;stroke-width:1px;stroke-linecap:butt;stroke-linejoin:miter;stroke-opacity:1"
       d="m 113.56247,97.002684 c 0,0 0.98479,-0.29544 1.47719,-0.19696 0.4924,0.09848 6.59815,3.840716 6.89359,3.939196 0.29544,0.0985 0.64996,-6.257638 -1.96959,-7.189032 -4.4316,-1.575678 -6.40119,3.446796 -6.40119,3.446796 z"
       id="path4181-7"
       inkscape:connector-curvature="0"
       sodipodi:nodetypes="cscsc" />
    <path
       style="fill:#111521;fill-opacity:1;fill-rule:evenodd;stroke:none;stroke-width:1px;stroke-linecap:butt;stroke-linejoin:miter;stroke-opacity:1"
       d="M 69.246094 133.63672 L -0.5 178.93555 L -0.5 233.14258 L 73.285156 178.9375 L 91.009766 168.20312 L 69.246094 133.63672 z "
       id="path4203" />
    <path
       style="fill:#1a1a1a;fill-opacity:0.12820512;fill-rule:evenodd;stroke:none;stroke-width:1px;stroke-linecap:butt;stroke-linejoin:miter;stroke-opacity:1"
       d="m 136.78849,129.58476 -12.95226,3.76033 c 0,0 -0.47363,-0.50586 -0.78231,-0.83236 -4.77286,4.36705 -8.93445,7.97217 -10.98613,9.25829 -6.32573,3.96539 -16.213615,3.53527 -23.089608,5.3314 -8.522321,2.22617 -13.79071,5.86573 -18.159429,1.79158 l 7.893496,7.36127 4.874505,3.76033 c 4.874505,3.76033 30.779016,-13.2308 30.779016,-13.2308 0,0 6.89394,-2.64616 9.12228,-4.17815 2.22835,-1.53198 1.53199,-3.06397 2.78544,-3.48179 1.25344,-0.41781 7.24212,-5.29232 7.45102,-6.05831 0.20891,-0.76599 3.34252,-1.53199 3.34252,-1.53199 z"
       id="path4207"
       inkscape:connector-curvature="0"
       sodipodi:nodetypes="cccssccscssscc" />
    <path
       style="fill:#f8d9c4;fill-opacity:1;fill-rule:evenodd;stroke:none;stroke-width:1px;stroke-linecap:butt;stroke-linejoin:miter;stroke-opacity:1"
       d="m 129.88039,114.69918 c 2.75743,-0.78784 11.42366,-4.13616 13.39326,-4.72704 1.96959,-0.59088 5.12095,-1.18175 7.2875,-1.77264 2.16656,-0.59088 1.18176,-2.95439 2.75744,-4.53007 1.57568,-1.57568 6.59523,2.19782 2.75744,8.66624 -3.739,6.30189 1.57567,4.33311 -0.39392,5.90879 -1.9696,1.57568 -7.87839,3.34831 -7.87839,4.13615 0,0.78784 0,1.77264 -1.18176,2.9544 -1.18176,1.18175 -8.07535,5.71183 -9.84799,6.10575 -1.77264,0.39392 -8.86319,1.77264 -10.04494,1.57568 -1.18176,-0.19696 -6.60082,2.36169 -8.23647,3.55722 -1.34737,0.98482 -3.77808,3.92725 -5.35375,5.109 -1.57568,1.18176 -10.83279,7.68143 -13.393265,3.9392 -2.56048,-3.74223 4.923995,-11.2267 7.287505,-12.80238 2.36352,-1.57568 12.40846,-9.84799 13.19631,-12.40846 0,0 3.33444,-7.60228 9.65103,-5.71184 z"
       id="path4148-3"
       inkscape:connector-curvature="0"
       sodipodi:nodetypes="cssssssssssssscc" />
    <path
       style="fill:#ffffff;fill-rule:evenodd;stroke:none;stroke-width:1px;stroke-linecap:butt;stroke-linejoin:miter;stroke-opacity:1"
       d="m 103.41904,138.36423 c 1.18176,0.0985 4.92399,3.9392 4.53007,4.62856 -0.39392,0.68935 -5.71183,4.72703 -7.28751,1.87111 -1.575673,-2.85591 2.75744,-6.49967 2.75744,-6.49967 z"
       id="path4179-6"
       inkscape:connector-curvature="0" />
    <path
       style="fill:#c8a68d;fill-opacity:0.2;fill-rule:evenodd;stroke:none;stroke-width:1px;stroke-linecap:butt;stroke-linejoin:miter;stroke-opacity:1"
       d="m 169.70508,110.68945 c 0,0 -18.73775,3.53474 -23.6875,7.42383 -4.94975,3.88908 -7.3706,9.68591 -14.84961,10.60742 -5.20422,0.64122 -14.14205,4.5954 -19.0918,7.42383 -3.60031,2.05733 -9.18846,7.23674 -12.00586,9.93945 3.08208,2.4971 11.41286,-3.35506 12.90039,-4.4707 1.57567,-1.18176 4.0081,-4.1226 5.35547,-5.10742 1.63565,-1.19553 7.05457,-3.75555 8.23633,-3.55859 1.18175,0.19696 8.27228,-1.1803 10.04492,-1.57422 1.77264,-0.39392 8.6659,-4.92568 9.84766,-6.10743 1.18176,-1.18175 1.18164,-2.16528 1.18164,-2.95312 0,-0.78784 5.9093,-2.56104 7.8789,-4.13672 1.3445,-1.0756 9.11142,0.0463 15.09766,-1.13476 z"
       id="path4785"
       inkscape:connector-curvature="0"
       sodipodi:nodetypes="cssscssssssscc" />
    <path
       style="fill:#ececec;fill-rule:evenodd;stroke:none;stroke-width:0.95875561px;stroke-linecap:butt;stroke-linejoin:miter;stroke-opacity:1"
       d="m 159.84089,91.647964 3.50485,31.404936 c 0,0 18.93994,-5.61237 21.2128,-4.86252 2.27286,0.74986 -2.9958,-32.052822 -2.9958,-32.052822 z"
       id="path4205"
       inkscape:connector-curvature="0" />
    <path
       style="fill:#000000;fill-rule:evenodd;stroke:none;stroke-width:1px;stroke-linecap:butt;stroke-linejoin:miter;stroke-opacity:1;fill-opacity:0.12307692"
       d="m 161.375,107.5 15.25,-4 2.125,15.375 -15.375,3.875 z"
       id="path4803"
       inkscape:connector-curvature="0" />
    <path
       style="display:inline;fill:#808080;fill-rule:evenodd;stroke:none;stroke-width:0.95875561px;stroke-linecap:butt;stroke-linejoin:miter;stroke-opacity:1"
       d="M 257.5 62.84375 L 172.13867 84.568359 L 175.64453 123.17773 C 175.64453 123.17773 225.32734 112.2495 257.5 105.625 L 257.5 62.84375 z "
       id="path4205-1" />
    <path
       style="fill:#171717;fill-opacity:0.19607843;fill-rule:nonzero;stroke:none"
       d="m 195.39258,184.24414 c -0.1004,0.0177 -0.20006,0.0563 -0.29102,0.11524 l -3.03711,1.96679 -0.39453,-0.60742 c -0.23584,-0.36406 -0.72213,-0.46809 -1.08594,-0.23242 l -0.46093,0.29883 c -0.63035,-0.41139 -1.80737,-1.15208 -2.66211,-1.34766 -1.12078,-0.25667 -2.1138,-0.13855 -3.5,0.89062 -1.38635,1.02891 -10.75528,8.409 -11.5586,9.19141 -0.80305,0.78225 -0.26203,1.41411 0.31641,1.49805 0.57843,0.0839 1.62249,-0.52788 1.6875,-0.83203 0.065,-0.30414 -0.7414,0.0683 -0.68164,-0.64844 0.0599,-0.71649 6.42783,-4.84098 8.93555,-6.53125 2.36941,-1.59669 3.63532,-2.04463 3.86914,0.10742 l -15.62696,10.125 -0.0312,-0.0488 -1.44531,0.9375 0.0332,0.0527 c -0.97309,0.64581 -15.16334,10.08484 -24.70703,17.3164 l -0.006,-0.01 c -0.36375,0.27539 -0.72004,0.54846 -1.06836,0.8164 -3.84605,2.95709 -6.66793,5.39807 -7.13281,6.49805 -0.49338,0.42846 -0.84164,0.78856 -0.75781,0.91797 0.0841,0.12984 0.55634,-0.0403 1.15039,-0.31641 1.19717,0.0224 4.57692,-1.55272 8.84375,-3.85156 0.38691,-0.20837 0.78144,-0.42346 1.18164,-0.64258 l -0.006,-0.01 c 10.50139,-5.75387 24.91806,-14.84337 25.9043,-15.4668 l 0.0332,0.0508 1.44531,-0.93554 -0.0312,-0.0469 19.6836,-12.75195 c 0.3638,-0.23568 0.46809,-0.72214 0.23242,-1.08594 l -0.39453,-0.60742 3.03906,-1.96875 c 0.36381,-0.23567 0.46825,-0.72188 0.23242,-1.08594 l -0.31054,-0.47852 -0.29297,-0.45117 -0.31055,-0.47851 c -0.17675,-0.27285 -0.49372,-0.40075 -0.79492,-0.34766 z"
       id="path218-8"
       inkscape:connector-curvature="0" />
    <g
       id="g4637"
       transform="matrix(0.39205272,0.60521209,-0.60521209,0.39205272,243.17088,213.27571)">
      <path
         d="m -71.240521,129.70866 c 0.132925,1.12401 0.314231,1.94471 0.560737,1.94471 0.246929,0 0.428234,-0.8207 0.560738,-1.94471 l -1.121475,0"
         style="fill:#171717;fill-opacity:1;fill-rule:nonzero;stroke:none"
         id="path218"
         inkscape:connector-curvature="0" />
      <path
         d="m -68.426728,40.050605 c 0,0.601122 -0.487127,1.088664 -1.088672,1.088664 l -2.328768,0 c -0.601122,0 -1.088663,-0.487542 -1.088663,-1.088664 l 0,-7.865486 c 0,-0.601122 0.487541,-1.088249 1.088663,-1.088249 l 2.328768,0 c 0.601545,0 1.088672,0.487127 1.088672,1.088249 l 0,7.865486"
         style="fill:#99c7c4;fill-opacity:1;fill-rule:nonzero;stroke:none"
         id="path220"
         inkscape:connector-curvature="0" />
      <path
         d="m -69.956671,37.192223 -1.445804,0 0,-5.007104 c 0,-0.601122 0.156061,-1.088249 0.349145,-1.088249 l 0.747514,0 c 0.192663,0 0.349145,0.487127 0.349145,1.088249 l 0,5.007104"
         style="fill:#abd2ce;fill-opacity:1;fill-rule:nonzero;stroke:none"
         id="path222"
         inkscape:connector-curvature="0" />
      <path
         d="m -74.181768,38.667055 c 0,0 -3.278199,1.361251 -4.42155,2.472214 -1.143774,1.110962 -1.753736,2.355272 -1.601036,4.744621 0.152285,2.389341 1.677171,18.856893 1.982148,20.381786 0.304977,1.524464 1.448328,1.372186 1.982147,0.762232 0.53382,-0.609954 0.609955,-2.287125 0.304978,-2.592102 -0.304978,-0.304977 -0.48039,0.914931 -1.269548,0.304977 -0.788735,-0.609954 -0.788735,-11.13107 -0.8653,-15.3242 -0.07613,-4.19313 0.38112,-6.022579 3.507041,-4.19313 l 0.38112,-6.556398"
         style="fill:#99c7c4;fill-opacity:1;fill-rule:nonzero;stroke:none"
         id="path224"
         inkscape:connector-curvature="0" />
      <path
         d="m -67.421351,37.206104 -6.516435,0 c -0.601545,0 -1.088672,0.487549 -1.088672,1.088671 l 0,34.32117 c 0,0 0.28142,27.158608 1.664134,44.261355 l 5.365503,0 c 1.382291,-17.102747 1.664133,-44.261355 1.664133,-44.261355 l 0,-34.32117 c 0,-0.601122 -0.487541,-1.088671 -1.088663,-1.088671"
         style="fill:#f03956;fill-opacity:1;fill-rule:nonzero;stroke:none"
         id="path226"
         inkscape:connector-curvature="0" />
      <path
         d="m -67.421351,37.206104 -6.516435,0 c -0.601545,0 -1.088672,0.487549 -1.088672,1.088671 l 0,34.32117 c 0,0 0.28142,27.158608 1.664134,44.261355 l 5.365503,0 c 1.382291,-17.102747 1.664133,-44.261355 1.664133,-44.261355 l 0,-34.32117 c 0,-0.601122 -0.487541,-1.088671 -1.088663,-1.088671"
         style="fill:#f03956;fill-opacity:1;fill-rule:nonzero;stroke:none"
         id="path228"
         inkscape:connector-curvature="0" />
      <path
         d="m -75.104695,73.204452 8.849785,0 0,-2.387247 -8.849785,0 0,2.387247 z"
         style="fill:#99c7c4;fill-opacity:1;fill-rule:nonzero;stroke:none"
         id="path230"
         inkscape:connector-curvature="0" />
      <path
         d="m -73.362324,116.8773 c 0.635192,7.8596 1.503009,13.59613 2.68254,13.59613 1.179954,0 2.047771,-5.73653 2.682963,-13.59613 l -5.365503,0"
         style="fill:#99c7c4;fill-opacity:1;fill-rule:nonzero;stroke:none"
         id="path232"
         inkscape:connector-curvature="0" />
      <path
         d="m -73.505355,115.01756 c 0.04627,0.631 0.09381,1.25231 0.143031,1.85974 l 5.365503,0 c 0.04921,-0.60743 0.09633,-1.22874 0.143031,-1.85974 l -5.651565,0"
         style="fill:#ad2b42;fill-opacity:1;fill-rule:nonzero;stroke:none"
         id="path234"
         inkscape:connector-curvature="0" />
      <path
         d="m -70.679784,129.70866 c -0.346198,0 -0.604905,-5.35625 -0.796731,-12.83136 l 1.593884,0 c -0.192247,7.47511 -0.450532,12.83136 -0.797153,12.83136"
         style="fill:#abd2ce;fill-opacity:1;fill-rule:nonzero;stroke:none"
         id="path236"
         inkscape:connector-curvature="0" />
      <path
         d="m -69.349241,37.206104 -0.60743,0 0,-0.01387 0.60743,0 0,0.01387 m -2.053234,0 -0.607429,0 0,-0.01387 0.607429,0 0,0.01387"
         style="fill:#abd2ce;fill-opacity:1;fill-rule:nonzero;stroke:none"
         id="path238"
         inkscape:connector-curvature="0" />
      <path
         d="m -71.402475,37.206104 1.44585,0 0,-0.01394 -1.44585,0 0,0.01394 z"
         style="fill:#badbd7;fill-opacity:1;fill-rule:nonzero;stroke:none"
         id="path240"
         inkscape:connector-curvature="0" />
      <path
         d="m -69.837204,115.01756 -1.685159,0 c -0.334842,-14.39622 -0.449689,-35.11874 -0.479131,-41.813108 l 2.643421,0 c -0.02864,6.543352 -0.138818,26.487651 -0.456833,40.828348 l 0,0 c -0.0075,0.33106 -0.01477,0.6596 -0.02231,0.98476 m 0.487964,-44.200355 -2.660672,0 0,-33.611101 2.660672,0 0,33.611101"
         style="fill:#f25473;fill-opacity:1;fill-rule:nonzero;stroke:none"
         id="path242"
         inkscape:connector-curvature="0" />
      <path
         d="m -69.358073,73.204452 -2.643421,0 c -0.003,-0.677687 -0.0053,-1.212343 -0.006,-1.581262 l -0.0023,0 0,-0.805985 2.660664,0 0,0.805985 -0.0023,0 c -0.0015,0.368919 -0.0038,0.903153 -0.0068,1.581262"
         style="fill:#abd2ce;fill-opacity:1;fill-rule:nonzero;stroke:none"
         id="path244"
         inkscape:connector-curvature="0" />
      <path
         d="m -69.882631,116.8773 -1.593884,0 c -0.0084,-0.31549 -0.01643,-0.63562 -0.02442,-0.95869 -0.0068,-0.29698 -0.01432,-0.59817 -0.0214,-0.90105 l 1.685166,0 c -0.0075,0.3033 -0.01432,0.60407 -0.0214,0.90105 -0.008,0.32307 -0.01598,0.6432 -0.02396,0.95869"
         style="fill:#bb4c61;fill-opacity:1;fill-rule:nonzero;stroke:none"
         id="path246"
         inkscape:connector-curvature="0" />
    </g>
    <path
       style="fill:#000000;fill-rule:evenodd;stroke:none;stroke-width:1px;stroke-linecap:butt;stroke-linejoin:miter;stroke-opacity:1;fill-opacity:0.03921569"
       d="M 173.875,101.875 257.625,81.5 257.5,105.625 175.5,123 Z"
       id="path4805"
       inkscape:connector-curvature="0"
       sodipodi:nodetypes="ccccc" />
  </g>
  <g
     inkscape:groupmode="layer"
     id="layer3"
     inkscape:label="Layer 3"
     style="display:none">
    <path
       style="fill:#ffffff;fill-rule:evenodd;stroke:none;stroke-width:1px;stroke-linecap:butt;stroke-linejoin:miter;stroke-opacity:1"
       d="m 104.47503,172.38462 c 2.12132,0.17678 8.83883,7.07107 8.13173,8.30851 -0.70711,1.23743 -10.25305,8.48528 -13.08148,3.35875 -2.828428,-5.12652 4.94975,-11.66726 4.94975,-11.66726 z"
       id="path4179"
       inkscape:connector-curvature="0" />
    <path
       style="fill:#f9f9f9;fill-opacity:1;fill-rule:evenodd;stroke:none;stroke-width:1px;stroke-linecap:butt;stroke-linejoin:miter;stroke-opacity:1"
       d="m 122.68303,98.138411 c 0,0 1.76776,-0.53033 2.65165,-0.353553 0.88388,0.176776 11.84404,6.894292 12.37437,7.071072 0.53033,0.17677 1.1667,-11.232801 -3.53553,-12.904704 -7.95496,-2.828427 -11.49049,6.187185 -11.49049,6.187185 z"
       id="path4181"
       inkscape:connector-curvature="0"
       sodipodi:nodetypes="cscsc" />
  </g>
</svg>
