<svg xmlns="http://www.w3.org/2000/svg" viewBox="0 0 24 24">
  <g fill="none" fill-rule="evenodd" stroke="#eee" stroke-width=".1">
    <path stroke-linecap="square" d="M17.230348 21.059229H6.7696506l-5.2303485-9.059228 5.2303485-9.0592311H17.230351l5.230348 9.0592311z" color="#000" overflow="visible" style="isolation:auto;mix-blend-mode:normal"/>
    <path d="M1.5393021 12.000001H6.07887m11.151481-9.059228l-2.269786 3.9313804m2.269783 14.1870756l-2.269783-3.93138"/>
  </g>
  <g fill="none" fill-rule="evenodd" stroke="#eee" stroke-width=".1">
    <path stroke-linecap="square" d="M14.960565 17.127849H9.0394361L6.07887 12.000001l2.9605661-5.1278476h5.9211289l2.960563 5.1278476z" color="#000" overflow="visible" style="isolation:auto;mix-blend-mode:normal"/>
    <path d="M9.0394361 17.127849l2.7117229-4.696846M9.0394361 6.8721534l2.7117229 4.6968426m6.169969.431005h-5.423449"/>
  </g>
  <g fill="#fff" stroke="#eee" stroke-width=".1">
    <path stroke-linecap="round" d="M13.038518 13.01695l-1.901946.232701-1.1532615-1.52638.7488155-1.75903 1.901915-.232885 1.153198 1.526379-.748721 1.759215"/>
    <path d="M12.446455 8.7655923c-.610666.024552-1.208706.8027556-1.579898 1.9747537-1.423847.355635-2.3953086 1.065661-2.3133802 1.760489.066967.566343 1.0220039 1.036394 1.9680812 1.141999-.6077934-.175567-1.3340479-.533514-1.3441912-.8048-.020172-.540555.7149134-.916666 1.4571202-1.1501-.01614.08931-.03214.178915-.04574.270808-.278348 1.880296.250062 3.480745 1.029547 3.576093.648338.07969 1.313656-.754912 1.716175-2.042415-.347714.798887-1.035942 1.219936-1.439014 1.167571-.623906-.08125-.836084-1.454834-.568935-2.834032.02218-.114439.04753-.225569.07433-.334817.23829-.04858.443653-.08001.57497-.09292 1.402889-.138016 3.003868.120919 3.109605.810676.06964.454776-.667155.835154-1.393429 1.162647 1.258086-.39817 2.095481-1.018183 2.007948-1.661219-.116311-.85475-1.811765-1.364324-3.77209-1.156135-.07789.0083-.154758.01795-.231101.02827.336088-.799119.782256-1.2955103 1.149941-1.2471458.387015.050959.613932.631914.764297 1.1929848-.120047-.9917037-.542906-1.7263287-1.086407-1.7617606-.02596-.0017-.0519-.00199-.07783-.0009515z"/>
  </g>
</svg>
