<?xml version="1.0" encoding="UTF-8" standalone="no"?>
<svg
   xmlns:dc="http://purl.org/dc/elements/1.1/"
   xmlns:cc="http://creativecommons.org/ns#"
   xmlns:rdf="http://www.w3.org/1999/02/22-rdf-syntax-ns#"
   xmlns:svg="http://www.w3.org/2000/svg"
   xmlns="http://www.w3.org/2000/svg"
   xmlns:sodipodi="http://sodipodi.sourceforge.net/DTD/sodipodi-0.dtd"
   xmlns:inkscape="http://www.inkscape.org/namespaces/inkscape"
   version="1.1"
   x="0px"
   y="0px"
   viewBox="0 0 24 24"
   style="enable-background:new 0 0 24 24;"
   xml:space="preserve"
   id="svg24"
   sodipodi:docname="tinc-l-white.svg"
   inkscape:version="0.92.2 (unknown)"><sodipodi:namedview
     pagecolor="#ffffff"
     bordercolor="#666666"
     borderopacity="1"
     objecttolerance="10"
     gridtolerance="10"
     guidetolerance="10"
     inkscape:pageopacity="0"
     inkscape:pageshadow="2"
     inkscape:window-width="1887"
     inkscape:window-height="1056"
     id="namedview23"
     showgrid="false"
     showguides="false"
     inkscape:zoom="39.333333"
     inkscape:cx="15.273739"
     inkscape:cy="12.164566"
     inkscape:window-x="33"
     inkscape:window-y="24"
     inkscape:window-maximized="1"
     inkscape:current-layer="svg24" /><metadata
     id="metadata30"><rdf:RDF><cc:Work
         rdf:about=""><dc:format>image/svg+xml</dc:format><dc:type
           rdf:resource="http://purl.org/dc/dcmitype/StillImage" /><dc:title /></cc:Work></rdf:RDF></metadata><defs
     id="defs28"><clipPath
       clipPathUnits="userSpaceOnUse"
       id="clipPath40"><path
         d="m 565.879,2409.88 292.047,686.12 741.704,90.8 449.75,-595.26 -292,-686.13 -741.71,-90.79 z"
         id="path38" /></clipPath></defs><style
     type="text/css"
     id="style2">
	.st0{fill:#CCE7FF;}
	.st1{fill:#FFFFFF;}
	.st2{fill:none;stroke:#1078FF;stroke-linecap:round;stroke-linejoin:round;stroke-miterlimit:10;}
	.st3{fill:none;stroke:#1078FF;stroke-linecap:round;stroke-miterlimit:10;}
	.st4{fill:none;}
</style><g
     id="g848"
     style="stroke:#eeeeee;stroke-opacity:1"><path
       id="path1798"
       d="M 17.230348,21.059229 H 6.7696506 L 1.5393021,12.000001 6.7696506,2.9407699 H 17.230351 l 5.230348,9.0592311 z"
       style="color:#000000;clip-rule:nonzero;display:inline;overflow:visible;visibility:visible;opacity:1;isolation:auto;mix-blend-mode:normal;color-interpolation:sRGB;color-interpolation-filters:linearRGB;solid-color:#000000;solid-opacity:1;vector-effect:none;fill:none;fill-opacity:1;fill-rule:evenodd;stroke:#eeeeee;stroke-width:0.1;stroke-linecap:square;stroke-linejoin:miter;stroke-miterlimit:4;stroke-dasharray:none;stroke-dashoffset:0;stroke-opacity:1;paint-order:normal;color-rendering:auto;image-rendering:auto;shape-rendering:auto;text-rendering:auto;enable-background:accumulate"
       inkscape:connector-curvature="0" /><path
       id="path1800"
       d="M 1.5393021,12.000001 H 6.07887"
       style="fill:none;fill-rule:evenodd;stroke:#eeeeee;stroke-width:0.1;stroke-linecap:butt;stroke-linejoin:miter;stroke-miterlimit:4;stroke-dasharray:none;stroke-opacity:1"
       inkscape:connector-curvature="0"
       sodipodi:nodetypes="cc" /><path
       id="path1802"
       d="M 17.230351,2.940773 14.960565,6.8721534"
       style="fill:none;fill-rule:evenodd;stroke:#eeeeee;stroke-width:0.1;stroke-linecap:butt;stroke-linejoin:miter;stroke-miterlimit:4;stroke-dasharray:none;stroke-opacity:1"
       inkscape:connector-curvature="0"
       sodipodi:nodetypes="cc" /><path
       id="path1804"
       d="m 17.230348,21.059229 -2.269783,-3.93138"
       style="fill:none;fill-rule:evenodd;stroke:#eeeeee;stroke-width:0.1;stroke-linecap:butt;stroke-linejoin:miter;stroke-miterlimit:4;stroke-dasharray:none;stroke-opacity:1"
       inkscape:connector-curvature="0"
       sodipodi:nodetypes="cc" /></g><g
     id="g854"
     style="stroke:#eeeeee;stroke-opacity:1"><path
       id="path1806"
       d="M 14.960565,17.127849 H 9.0394361 L 6.07887,12.000001 9.0394361,6.8721534 h 5.9211289 l 2.960563,5.1278476 z"
       style="color:#000000;clip-rule:nonzero;display:inline;overflow:visible;visibility:visible;opacity:1;isolation:auto;mix-blend-mode:normal;color-interpolation:sRGB;color-interpolation-filters:linearRGB;solid-color:#000000;solid-opacity:1;vector-effect:none;fill:none;fill-opacity:1;fill-rule:evenodd;stroke:#eeeeee;stroke-width:0.1;stroke-linecap:square;stroke-linejoin:miter;stroke-miterlimit:4;stroke-dasharray:none;stroke-dashoffset:0;stroke-opacity:1;paint-order:normal;color-rendering:auto;image-rendering:auto;shape-rendering:auto;text-rendering:auto;enable-background:accumulate"
       inkscape:connector-curvature="0" /><path
       id="path1808"
       d="M 9.0394361,17.127849 11.751159,12.431003"
       style="fill:none;fill-rule:evenodd;stroke:#eeeeee;stroke-width:0.1;stroke-linecap:butt;stroke-linejoin:miter;stroke-miterlimit:4;stroke-dasharray:none;stroke-opacity:1"
       inkscape:connector-curvature="0" /><path
       id="path1810"
       d="M 9.0394361,6.8721534 11.751159,11.568996"
       style="fill:none;fill-rule:evenodd;stroke:#eeeeee;stroke-width:0.1;stroke-linecap:butt;stroke-linejoin:miter;stroke-miterlimit:4;stroke-dasharray:none;stroke-opacity:1"
       inkscape:connector-curvature="0" /><path
       id="path1812"
       d="M 17.921128,12.000001 H 12.497679"
       style="fill:none;fill-rule:evenodd;stroke:#eeeeee;stroke-width:0.1;stroke-linecap:butt;stroke-linejoin:miter;stroke-miterlimit:4;stroke-dasharray:none;stroke-opacity:1"
       inkscape:connector-curvature="0" /></g><g
     id="g858"
     style="stroke:#eeeeee;stroke-opacity:1"><path
       d="m 13.038518,13.01695 -1.901946,0.232701 -1.1532615,-1.52638 0.7488155,-1.75903 1.901915,-0.232885 1.153198,1.526379 -0.748721,1.759215"
       style="fill:#ffffff;fill-opacity:1;fill-rule:nonzero;stroke:#eeeeee;stroke-width:0.1;stroke-linecap:round;stroke-miterlimit:4;stroke-dasharray:none;stroke-opacity:1"
       id="path1828"
       inkscape:connector-curvature="0" /><path
       style="fill:#ffffff;fill-opacity:1;fill-rule:nonzero;stroke:#eeeeee;stroke-width:0.1;stroke-miterlimit:4;stroke-dasharray:none;stroke-opacity:1"
       d="m 12.446455,8.7655923 c -0.610666,0.024552 -1.208706,0.8027556 -1.579898,1.9747537 -1.423847,0.355635 -2.3953086,1.065661 -2.3133802,1.760489 0.066967,0.566343 1.0220039,1.036394 1.9680812,1.141999 -0.6077934,-0.175567 -1.3340479,-0.533514 -1.3441912,-0.8048 -0.020172,-0.540555 0.7149134,-0.916666 1.4571202,-1.1501 -0.01614,0.08931 -0.03214,0.178915 -0.04574,0.270808 -0.278348,1.880296 0.250062,3.480745 1.029547,3.576093 0.648338,0.07969 1.313656,-0.754912 1.716175,-2.042415 -0.347714,0.798887 -1.035942,1.219936 -1.439014,1.167571 -0.623906,-0.08125 -0.836084,-1.454834 -0.568935,-2.834032 0.02218,-0.114439 0.04753,-0.225569 0.07433,-0.334817 0.23829,-0.04858 0.443653,-0.08001 0.57497,-0.09292 1.402889,-0.138016 3.003868,0.120919 3.109605,0.810676 0.06964,0.454776 -0.667155,0.835154 -1.393429,1.162647 1.258086,-0.39817 2.095481,-1.018183 2.007948,-1.661219 -0.116311,-0.85475 -1.811765,-1.364324 -3.77209,-1.156135 -0.07789,0.0083 -0.154758,0.01795 -0.231101,0.02827 0.336088,-0.799119 0.782256,-1.2955103 1.149941,-1.2471458 0.387015,0.050959 0.613932,0.631914 0.764297,1.1929848 -0.120047,-0.9917037 -0.542906,-1.7263287 -1.086407,-1.7617606 -0.02596,-0.0017 -0.0519,-0.00199 -0.07783,-9.515e-4 z"
       id="path1824"
       inkscape:connector-curvature="0" /></g></svg>