<?xml version="1.0" encoding="UTF-8" standalone="no"?>
<svg
   xmlns:dc="http://purl.org/dc/elements/1.1/"
   xmlns:cc="http://creativecommons.org/ns#"
   xmlns:rdf="http://www.w3.org/1999/02/22-rdf-syntax-ns#"
   xmlns:svg="http://www.w3.org/2000/svg"
   xmlns="http://www.w3.org/2000/svg"
   xmlns:sodipodi="http://sodipodi.sourceforge.net/DTD/sodipodi-0.dtd"
   xmlns:inkscape="http://www.inkscape.org/namespaces/inkscape"
   version="1.1"
   x="0px"
   y="0px"
   viewBox="0 0 93.129997 128.00101"
   enable-background="new 0 0 128 128"
   xml:space="preserve"
   id="svg8"
   sodipodi:docname="unlock.svg"
   width="93.129997"
   height="128.00101"
   inkscape:version="0.92.2 (unknown)"><metadata
     id="metadata14"><rdf:RDF><cc:Work
         rdf:about=""><dc:format>image/svg+xml</dc:format><dc:type
           rdf:resource="http://purl.org/dc/dcmitype/StillImage" /><dc:title></dc:title></cc:Work></rdf:RDF></metadata><defs
     id="defs12" /><sodipodi:namedview
     pagecolor="#ffffff"
     bordercolor="#666666"
     borderopacity="1"
     objecttolerance="10"
     gridtolerance="10"
     guidetolerance="10"
     inkscape:pageopacity="0"
     inkscape:pageshadow="2"
     inkscape:window-width="736"
     inkscape:window-height="480"
     id="namedview10"
     showgrid="false"
     fit-margin-top="0"
     fit-margin-left="0"
     fit-margin-right="0"
     fit-margin-bottom="0"
     inkscape:zoom="1.475"
     inkscape:cx="46.565"
     inkscape:cy="48.001"
     inkscape:window-x="33"
     inkscape:window-y="24"
     inkscape:window-maximized="0"
     inkscape:current-layer="svg8" /><path
     d="M 87.196,53.688 H 83.157 V 36.518 C 83.112,16.359 66.733,0 46.567,0 26.392,0 10.012,16.359 9.97,36.518 L 9.987,42.41 H 23.223 L 23.206,36.518 C 23.249,23.671 33.7,13.242 46.566,13.242 c 12.857,0 23.309,10.43 23.344,23.276 l 0.008,17.171 H 5.925 C 2.656,53.689 0,56.347 0,59.618 v 62.455 c 0,3.271 2.656,5.928 5.925,5.928 h 81.271 c 3.277,0 5.934,-2.656 5.934,-5.928 V 59.617 c -10e-4,-3.27 -2.657,-5.929 -5.934,-5.929 z m -14.16,31.034 -22.148,22.151 -3.238,3.24 c -0.297,0.297 -0.643,0.521 -1.014,0.67 -1.104,0.446 -2.418,0.225 -3.311,-0.67 L 24.421,91.204 c -1.198,-1.192 -1.198,-3.128 -0.003,-4.32 l 3.237,-3.242 c 1.194,-1.192 3.135,-1.192 4.329,0 l 13.5,13.506 19.988,-19.989 c 1.195,-1.193 3.135,-1.191 4.33,0 l 3.238,3.24 c 1.195,1.195 1.195,3.13 -0.004,4.323 z"
     id="path2"
     inkscape:connector-curvature="0"
     style="clip-rule:evenodd;fill-rule:evenodd" /></svg>