<?xml version="1.0" encoding="UTF-8" standalone="no"?>
<!-- Created with Inkscape (http://www.inkscape.org/) -->

<svg
   xmlns:dc="http://purl.org/dc/elements/1.1/"
   xmlns:cc="http://creativecommons.org/ns#"
   xmlns:rdf="http://www.w3.org/1999/02/22-rdf-syntax-ns#"
   xmlns:svg="http://www.w3.org/2000/svg"
   xmlns="http://www.w3.org/2000/svg"
   xmlns:xlink="http://www.w3.org/1999/xlink"
   xmlns:sodipodi="http://sodipodi.sourceforge.net/DTD/sodipodi-0.dtd"
   xmlns:inkscape="http://www.inkscape.org/namespaces/inkscape"
   width="210mm"
   height="297mm"
   viewBox="0 0 210 297"
   version="1.1"
   id="svg8"
   inkscape:version="0.92.2 (unknown)"
   sodipodi:docname="telkomsel-all.svg">
  <defs
     id="defs2">
    <linearGradient
       inkscape:collect="always"
       id="linearGradient985">
      <stop
         style="stop-color:#838383;stop-opacity:1"
         offset="0"
         id="stop981" />
      <stop
         style="stop-color:#d7d7d7;stop-opacity:1"
         offset="1"
         id="stop983" />
    </linearGradient>
    <linearGradient
       inkscape:collect="always"
       id="linearGradient977">
      <stop
         style="stop-color:#790000;stop-opacity:1"
         offset="0"
         id="stop973" />
      <stop
         style="stop-color:#cc0000;stop-opacity:1"
         offset="1"
         id="stop975" />
    </linearGradient>
    <linearGradient
       inkscape:collect="always"
       xlink:href="#linearGradient977"
       id="linearGradient979"
       x1="22.873285"
       y1="121.25279"
       x2="90.871643"
       y2="121.25279"
       gradientUnits="userSpaceOnUse" />
    <linearGradient
       inkscape:collect="always"
       xlink:href="#linearGradient985"
       id="linearGradient987"
       x1="37.642937"
       y1="121.25279"
       x2="76.172157"
       y2="121.25279"
       gradientUnits="userSpaceOnUse" />
    <clipPath
       id="clipPath60"
       clipPathUnits="userSpaceOnUse">
      <path
         id="path58"
         d="m 1742.81,1924.7 -717.7,-87.81 -435.184,575.98 282.566,663.77 717.688,87.88 435.16,-575.98 z"
         inkscape:connector-curvature="0" />
    </clipPath>
    <clipPath
       id="clipPath40"
       clipPathUnits="userSpaceOnUse">
      <path
         id="path38"
         d="m 565.879,2409.88 292.047,686.12 741.704,90.8 449.75,-595.26 -292,-686.13 -741.71,-90.79 z"
         inkscape:connector-curvature="0" />
    </clipPath>
  </defs>
  <sodipodi:namedview
     id="base"
     pagecolor="#ffffff"
     bordercolor="#666666"
     borderopacity="1.0"
     inkscape:pageopacity="0.0"
     inkscape:pageshadow="2"
     inkscape:zoom="1.4"
     inkscape:cx="180.90272"
     inkscape:cy="508.71655"
     inkscape:document-units="mm"
     inkscape:current-layer="layer2"
     showgrid="false"
     showguides="false"
     inkscape:window-width="1887"
     inkscape:window-height="1056"
     inkscape:window-x="33"
     inkscape:window-y="24"
     inkscape:window-maximized="1" />
  <metadata
     id="metadata5">
    <rdf:RDF>
      <cc:Work
         rdf:about="">
        <dc:format>image/svg+xml</dc:format>
        <dc:type
           rdf:resource="http://purl.org/dc/dcmitype/StillImage" />
        <dc:title></dc:title>
      </cc:Work>
    </rdf:RDF>
  </metadata>
  <g
     inkscape:groupmode="layer"
     id="layer2"
     inkscape:label="Layer 2">
    <path
       style="color:#000000;clip-rule:nonzero;display:inline;overflow:visible;visibility:visible;opacity:1;isolation:auto;mix-blend-mode:normal;color-interpolation:sRGB;color-interpolation-filters:linearRGB;solid-color:#000000;solid-opacity:1;vector-effect:none;fill:url(#linearGradient979);fill-opacity:1;fill-rule:evenodd;stroke:none;stroke-width:0.26458332;stroke-linecap:square;stroke-linejoin:miter;stroke-miterlimit:4;stroke-dasharray:none;stroke-dashoffset:0;stroke-opacity:1;paint-order:normal;color-rendering:auto;image-rendering:auto;shape-rendering:auto;text-rendering:auto;enable-background:accumulate"
       d="M 73.924679,150.72732 H 39.890415 l -17.01713,-29.47453 17.017133,-29.474539 34.034264,10e-7 17.01713,29.474538 z"
       id="path945"
       inkscape:connector-curvature="0" />
    <path
       style="fill:none;fill-rule:evenodd;stroke:#d6d6d6;stroke-width:0.26458332px;stroke-linecap:butt;stroke-linejoin:miter;stroke-opacity:1"
       d="m 22.873285,121.25279 32.415044,0"
       id="path951"
       inkscape:connector-curvature="0"
       sodipodi:nodetypes="cc" />
    <path
       style="fill:none;fill-rule:evenodd;stroke:#d6d6d6;stroke-width:0.26458332px;stroke-linecap:butt;stroke-linejoin:miter;stroke-opacity:1"
       d="M 73.92468,91.778253 57.717158,119.8505"
       id="path953"
       inkscape:connector-curvature="0"
       sodipodi:nodetypes="cc" />
    <path
       style="fill:none;fill-rule:evenodd;stroke:#d6d6d6;stroke-width:0.26458332px;stroke-linecap:butt;stroke-linejoin:miter;stroke-opacity:1"
       d="M 73.924678,150.72732 57.717158,122.65507"
       id="path955"
       inkscape:connector-curvature="0"
       sodipodi:nodetypes="cc" />
    <path
       style="color:#000000;clip-rule:nonzero;display:inline;overflow:visible;visibility:visible;opacity:1;isolation:auto;mix-blend-mode:normal;color-interpolation:sRGB;color-interpolation-filters:linearRGB;solid-color:#000000;solid-opacity:1;vector-effect:none;fill:url(#linearGradient987);fill-opacity:1;fill-rule:evenodd;stroke:none;stroke-width:0.26458332;stroke-linecap:square;stroke-linejoin:miter;stroke-miterlimit:4;stroke-dasharray:none;stroke-dashoffset:0;stroke-opacity:1;paint-order:normal;color-rendering:auto;image-rendering:auto;shape-rendering:auto;text-rendering:auto;enable-background:accumulate"
       d="M 66.539853,137.93643 H 47.275242 l -9.632304,-16.68364 9.632306,-16.68364 19.26461,0 9.632305,16.68364 z"
       id="path947"
       inkscape:connector-curvature="0" />
    <path
       style="fill:none;fill-rule:evenodd;stroke:#dededc;stroke-width:0.26458332px;stroke-linecap:butt;stroke-linejoin:miter;stroke-opacity:1"
       d="m 47.275241,137.93643 8.822698,-15.28136"
       id="path959"
       inkscape:connector-curvature="0" />
    <path
       style="fill:none;fill-rule:evenodd;stroke:#dededc;stroke-width:0.26458332px;stroke-linecap:butt;stroke-linejoin:miter;stroke-opacity:1"
       d="m 47.275244,104.56915 8.822695,15.28135"
       id="path961"
       inkscape:connector-curvature="0" />
    <path
       style="fill:none;fill-rule:evenodd;stroke:#dededc;stroke-width:0.26458332px;stroke-linecap:butt;stroke-linejoin:miter;stroke-opacity:1"
       d="M 76.172157,121.25279 H 58.526767"
       id="path963"
       inkscape:connector-curvature="0" />
    <g
       id="g1796">
      <g
         transform="matrix(0.00862206,0,0,-0.00862206,45.259796,141.15634)"
         id="g34">
        <g
           id="g36"
           clip-path="url(#clipPath40)">
          <path
             inkscape:connector-curvature="0"
             d="m 1806.43,1802.84 c -151.89,-485.84 -403,-800.74 -647.65,-770.73 -294.139,35.98 -493.526,639.96 -388.491,1349.57 105.262,710.93 417.061,1224.98 730.501,1204.49 205.09,-13.37 364.64,-290.62 409.94,-664.84 -56.74,211.72 -142.35,430.96 -288.39,450.19 C 1421.03,3398 1157.25,2991.9 1048.7,2431.7 947.891,1911.33 1027.98,1392.89 1263.41,1362.23 c 152.1,-19.76 411.81,139.15 543.02,440.61"
             style="fill:#ffffff;fill-opacity:1;fill-rule:nonzero;stroke:none"
             id="path42" />
          <path
             inkscape:connector-curvature="0"
             d="m 1941.32,1848.48 c 274.06,123.58 552.07,267.06 525.79,438.67 -39.9,260.28 -644.02,358 -1173.4,305.92 C 1060.21,2570.12 224.613,2401.76 237.75,2049.82 241.578,1947.38 515.629,1812.35 744.98,1746.1 387.977,1785.95 27.5508,1963.29 2.28125,2177 -35.8359,2500.27 530.297,2832.33 1275.63,2911.61 c 739.73,78.56 1379.5,-113.74 1423.39,-436.28 33.03,-242.65 -282.96,-476.6 -757.7,-626.85"
             style="fill:#ffffff;fill-opacity:1;fill-rule:nonzero;stroke:none"
             id="path44" />
        </g>
      </g>
      <path
         inkscape:connector-curvature="0"
         d="m 60.834944,124.55381 -6.175034,0.7565 -3.744205,-4.95527 2.430807,-5.7122 6.175723,-0.7553 3.743784,4.95519 -2.431075,5.71108"
         style="fill:#656263;fill-opacity:1;fill-rule:nonzero;stroke:none;stroke-width:0.07032751"
         id="path46" />
      <path
         inkscape:connector-curvature="0"
         d="m 60.834942,125.61215 c -1.309604,4.18894 -3.47469,6.90455 -5.584077,6.64528 -2.536084,-0.31022 -4.25521,-5.51777 -3.349592,-11.63538 0.907575,-6.13037 3.595924,-10.56254 6.298423,-10.38588 1.768298,0.11528 3.143947,2.50575 3.534527,5.73229 -0.489215,-1.82546 -1.22735,-3.71576 -2.486515,-3.88156 -1.735707,-0.22831 -4.010034,3.27311 -4.945959,8.10318 -0.869181,4.48727 -0.178649,8.95668 1.851243,9.22104 1.311415,0.17037 3.55065,-1.19976 4.68195,-3.79897"
         style="fill:#ffffff;fill-opacity:1;fill-rule:nonzero;stroke:none;stroke-width:0.07032751"
         id="path48" />
      <path
         inkscape:connector-curvature="0"
         d="m 61.997971,125.21864 c 2.362962,-1.06551 4.759982,-2.30261 4.533394,-3.78224 -0.344021,-2.24415 -5.552779,-3.0867 -10.117125,-2.63766 -2.013251,0.19788 -9.217818,1.64949 -9.10455,4.68454 0.03301,0.88264 2.395889,2.04688 4.373367,2.61809 -3.0781,-0.34359 -6.185716,-1.87263 -6.403592,-3.71525 -0.328648,-2.78725 4.552583,-5.65029 10.978888,-6.33385 6.377996,-0.67735 11.894131,0.98067 12.272552,3.76163 0.284786,2.09214 -2.439697,4.10928 -6.532934,5.40474"
         style="fill:#ffffff;fill-opacity:1;fill-rule:nonzero;stroke:none;stroke-width:0.07032751"
         id="path50" />
      <path
         inkscape:connector-curvature="0"
         d="m 60.286407,124.56147 -6.188052,0.7571 -3.752182,-4.96613 2.4363,-5.72307 6.187949,-0.7577 3.751976,4.96613 -2.435991,5.72367"
         style="fill:#ed1c24;fill-opacity:1;fill-rule:nonzero;stroke:none;stroke-width:0.07032751"
         id="path52" />
      <g
         transform="matrix(0.00862206,0,0,-0.00862206,45.259796,141.15634)"
         id="g54">
        <g
           id="g56"
           clip-path="url(#clipPath60)">
          <path
             inkscape:connector-curvature="0"
             d="m 1806.43,1802.84 c -151.89,-485.84 -403,-800.74 -647.65,-770.73 -294.139,35.98 -493.526,639.96 -388.491,1349.57 105.262,710.93 417.061,1224.98 730.501,1204.49 205.09,-13.37 364.64,-290.62 409.94,-664.84 -56.74,211.72 -142.35,430.96 -288.39,450.19 C 1421.03,3398 1157.25,2991.9 1048.7,2431.7 947.891,1911.33 1027.98,1392.89 1263.41,1362.23 c 152.1,-19.76 411.81,139.15 543.02,440.61"
             style="fill:#dededc;fill-opacity:1;fill-rule:nonzero;stroke:none"
             id="path62" />
          <path
             inkscape:connector-curvature="0"
             d="m 1941.32,1848.48 c 274.06,123.58 552.07,267.06 525.79,438.67 -39.9,260.28 -644.02,358 -1173.4,305.92 C 1060.21,2570.12 224.613,2401.76 237.75,2049.82 241.578,1947.38 515.629,1812.35 744.98,1746.1 387.977,1785.95 27.5508,1963.29 2.28125,2177 -35.8359,2500.27 530.297,2832.33 1275.63,2911.61 c 739.73,78.56 1379.5,-113.74 1423.39,-436.28 33.03,-242.65 -282.96,-476.6 -757.7,-626.85"
             style="fill:#dededc;fill-opacity:1;fill-rule:nonzero;stroke:none"
             id="path64" />
        </g>
      </g>
    </g>
    <g
       id="g2541">
      <path
         style="color:#000000;clip-rule:nonzero;display:inline;overflow:visible;visibility:visible;opacity:1;isolation:auto;mix-blend-mode:normal;color-interpolation:sRGB;color-interpolation-filters:linearRGB;solid-color:#000000;solid-opacity:1;vector-effect:none;fill:#ffffff;fill-opacity:1;fill-rule:evenodd;stroke:#45201f;stroke-width:0.26458332;stroke-linecap:square;stroke-linejoin:miter;stroke-miterlimit:4;stroke-dasharray:none;stroke-dashoffset:0;stroke-opacity:1;paint-order:normal;color-rendering:auto;image-rendering:auto;shape-rendering:auto;text-rendering:auto;enable-background:accumulate"
         d="m 155.70915,194.82679 h -34.03426 l -17.01713,-29.47453 17.01713,-29.47454 34.03427,0 17.01713,29.47454 z"
         id="path1798"
         inkscape:connector-curvature="0" />
      <path
         style="fill:none;fill-rule:evenodd;stroke:#000000;stroke-width:0.26458332px;stroke-linecap:butt;stroke-linejoin:miter;stroke-opacity:1"
         d="M 104.65776,165.35226 H 137.0728"
         id="path1800"
         inkscape:connector-curvature="0"
         sodipodi:nodetypes="cc" />
      <path
         style="fill:none;fill-rule:evenodd;stroke:#000000;stroke-width:0.26458332px;stroke-linecap:butt;stroke-linejoin:miter;stroke-opacity:1"
         d="m 155.70916,135.87773 -16.20753,28.07224"
         id="path1802"
         inkscape:connector-curvature="0"
         sodipodi:nodetypes="cc" />
      <path
         style="fill:none;fill-rule:evenodd;stroke:#000000;stroke-width:0.26458332px;stroke-linecap:butt;stroke-linejoin:miter;stroke-opacity:1"
         d="M 155.70915,194.82679 139.50163,166.75454"
         id="path1804"
         inkscape:connector-curvature="0"
         sodipodi:nodetypes="cc" />
      <path
         style="color:#000000;clip-rule:nonzero;display:inline;overflow:visible;visibility:visible;opacity:1;isolation:auto;mix-blend-mode:normal;color-interpolation:sRGB;color-interpolation-filters:linearRGB;solid-color:#000000;solid-opacity:1;vector-effect:none;fill:#f9f9f9;fill-opacity:1;fill-rule:evenodd;stroke:#000000;stroke-width:0.26458332;stroke-linecap:square;stroke-linejoin:miter;stroke-miterlimit:4;stroke-dasharray:none;stroke-dashoffset:0;stroke-opacity:1;paint-order:normal;color-rendering:auto;image-rendering:auto;shape-rendering:auto;text-rendering:auto;enable-background:accumulate"
         d="m 148.32433,182.0359 h -19.26461 l -9.63231,-16.68364 9.63231,-16.68364 h 19.26461 l 9.6323,16.68364 z"
         id="path1806"
         inkscape:connector-curvature="0" />
      <path
         style="fill:none;fill-rule:evenodd;stroke:#000000;stroke-width:0.26458332px;stroke-linecap:butt;stroke-linejoin:miter;stroke-opacity:1"
         d="m 129.05972,182.0359 8.82269,-15.28136"
         id="path1808"
         inkscape:connector-curvature="0" />
      <path
         style="fill:none;fill-rule:evenodd;stroke:#000000;stroke-width:0.26458333;stroke-linecap:butt;stroke-linejoin:miter;stroke-opacity:1;stroke-miterlimit:4;stroke-dasharray:none"
         d="m 129.05972,148.66862 8.82269,15.28135"
         id="path1810"
         inkscape:connector-curvature="0" />
      <path
         style="fill:none;fill-rule:evenodd;stroke:#000000;stroke-width:0.26458332px;stroke-linecap:butt;stroke-linejoin:miter;stroke-opacity:1"
         d="M 157.95663,165.35226 H 140.31124"
         id="path1812"
         inkscape:connector-curvature="0" />
      <g
         id="g1820"
         transform="matrix(0.00862206,0,0,-0.00862206,127.04427,185.25581)">
        <g
           clip-path="url(#clipPath40)"
           id="g1818">
          <path
             id="path1814"
             style="fill:#ffffff;fill-opacity:1;fill-rule:nonzero;stroke:none"
             d="m 1806.43,1802.84 c -151.89,-485.84 -403,-800.74 -647.65,-770.73 -294.139,35.98 -493.526,639.96 -388.491,1349.57 105.262,710.93 417.061,1224.98 730.501,1204.49 205.09,-13.37 364.64,-290.62 409.94,-664.84 -56.74,211.72 -142.35,430.96 -288.39,450.19 C 1421.03,3398 1157.25,2991.9 1048.7,2431.7 947.891,1911.33 1027.98,1392.89 1263.41,1362.23 c 152.1,-19.76 411.81,139.15 543.02,440.61"
             inkscape:connector-curvature="0" />
          <path
             id="path1816"
             style="fill:#ffffff;fill-opacity:1;fill-rule:nonzero;stroke:none"
             d="m 1941.32,1848.48 c 274.06,123.58 552.07,267.06 525.79,438.67 -39.9,260.28 -644.02,358 -1173.4,305.92 C 1060.21,2570.12 224.613,2401.76 237.75,2049.82 241.578,1947.38 515.629,1812.35 744.98,1746.1 387.977,1785.95 27.5508,1963.29 2.28125,2177 -35.8359,2500.27 530.297,2832.33 1275.63,2911.61 c 739.73,78.56 1379.5,-113.74 1423.39,-436.28 33.03,-242.65 -282.96,-476.6 -757.7,-626.85"
             inkscape:connector-curvature="0" />
        </g>
      </g>
      <path
         id="path1828"
         style="fill:#ffffff;fill-opacity:1;fill-rule:nonzero;stroke:#000000;stroke-width:0.26458333;stroke-opacity:1;stroke-miterlimit:4;stroke-dasharray:none;stroke-linecap:round"
         d="m 142.07088,168.66094 -6.18805,0.7571 -3.75218,-4.96613 2.4363,-5.72307 6.18795,-0.7577 3.75197,4.96613 -2.43599,5.72367"
         inkscape:connector-curvature="0" />
      <path
         id="path1824"
         transform="scale(0.26458333)"
         d="M 528.11719 583.30469 C 520.60793 583.6066 513.25393 593.17604 508.68945 607.58789 C 491.18063 611.96108 479.23473 620.69215 480.24219 629.23633 C 481.06567 636.20056 492.8096 641.98069 504.44336 643.2793 C 496.96942 641.12039 488.03879 636.71877 487.91406 633.38281 C 487.66601 626.7357 496.70523 622.11072 505.83203 619.24023 C 505.6335 620.33843 505.43682 621.44031 505.26953 622.57031 C 501.84672 645.69199 508.3445 665.37244 517.92969 666.54492 C 525.90219 667.52484 534.0835 657.2619 539.0332 641.42969 C 534.75742 651.25347 526.2944 656.43103 521.33789 655.78711 C 513.66583 654.78795 511.05671 637.89726 514.3418 620.9375 C 514.61448 619.53026 514.92631 618.16371 515.25586 616.82031 C 518.18607 616.22288 520.71138 615.83645 522.32617 615.67773 C 539.57726 613.98058 559.26422 617.16466 560.56445 625.64648 C 561.42086 631.23879 552.36056 635.91623 543.42969 639.94336 C 558.90016 635.04713 569.19747 627.42293 568.12109 619.51562 C 566.69084 609.00491 545.84212 602.73877 521.73633 605.29883 C 520.77855 605.40071 519.8333 605.51951 518.89453 605.64648 C 523.02734 595.81986 528.51379 589.71582 533.03516 590.31055 C 537.79422 590.93719 540.58457 598.08109 542.43359 604.98047 C 540.95739 592.78567 535.75756 583.75211 529.07422 583.31641 C 528.75503 583.29554 528.43607 583.29187 528.11719 583.30469 z "
         style="fill:#ffffff;fill-opacity:1;fill-rule:nonzero;stroke:#000000;stroke-width:0.99999994;stroke-miterlimit:4;stroke-dasharray:none;stroke-opacity:1" />
    </g>
  </g>
</svg>
